<mxfile host="Electron" modified="2023-12-12T03:50:36.615Z" agent="Mozilla/5.0 (Windows NT 10.0; Win64; x64) AppleWebKit/537.36 (KHTML, like Gecko) draw.io/22.0.3 Chrome/114.0.5735.289 Electron/25.8.4 Safari/537.36" etag="5EDF1F1GzB8no2mS2XZU" version="22.0.3" type="device">
  <diagram name="Страница — 1" id="DY7rStQOs1ASNpuyuNsX">
    <mxGraphModel dx="1418" dy="958" grid="1" gridSize="10" guides="1" tooltips="1" connect="1" arrows="1" fold="1" page="1" pageScale="1" pageWidth="1169" pageHeight="827" math="0" shadow="0">
      <root>
        <mxCell id="0" />
        <mxCell id="1" parent="0" />
        <mxCell id="0Q9RwSlWG3deikkum8Ub-1" value="" style="shape=image;verticalLabelPosition=bottom;labelBackgroundColor=default;verticalAlign=top;aspect=fixed;imageAspect=0;image=data:image/png,iVBORw0KGgoAAAANSUhEUgAABgwAAARACAYAAAAyFXigAAAgAElEQVR4nOzde5yXZYE3/s+ch2EARTkIzYgHxFAikkzRig5otWZlPLm5a1vZbmFHyW1l2/1Fr55HfHZL7aS7T1ltlm2F1qodjDI0RUOMEKQQDzgEylGBYZhhDvz+mAGGYWYYjoPwfr/C5v7ep+u+7vv7el3f+3Pf11XQd8AJ2wIAAAAAABzVCnu7AAAAAAAAQO8TGAAAAAAAAAIDAAAAAABAYAAAAAAAAERgAAAAAAAARGAAAAAAAABEYAAAAAAAAERgAAAAAAAARGAAAAAAAABEYAAAAAAAAERgAAAAAAAARGAAAAAAAABEYAAAAAAAAERgAAAAAAAARGAAAAAAAAAkKe7tAgAAcPionnBhxg87Na8+uyxPzH08S+fdkweW9XapAAAAOBQK+g44YVtvFwIAgN5UlUuunpar/u7CjBzYYVZTQ2rm3prr/nFG7hAcAAAAHNEEBgAAR7WJ+dxPr8uUVw/qfrGNi/PtT7w902YdmlIBAABw6OmSCADgqFWVKT++MVNe3W/nR+ufzANzFmd1fZKBp+b814zO4L5Jml5MzdLeKicAAACHgsAAAOBo9ffX5qoJO8OCjXOuz7v/19ezsP0yIy7OjBvfl7KvX56bdUkEAABwRCvs7QIAANAbJuSmv5uQ/tsnn7kzUzqGBUmy7M5Me+fkTJ2VJONy/b2Ls+yJxVn2xB9z9/SqTrf8qR8/vHOZa1o/m/Hz7estzrI/zcznRnSy4qU3Ze4TO5eb+53Ld5l9ILaRJGM+OCMz7304Tzz7VJ5fsfPfEw/fms+9s5Njuvautu09nJlXJdXvnJaZD/9x13XvuymfGttxxcvzvYe3l2V2vvfBjvOrcs2OulqcWde2nzc6H/i3W/O7hYt32c/zK57KE/Puyk0fHN3JwSfV75yab/10dp54atd1li28p/N1dhzb4iz7+fTdZn/gO7O7rss9rJtJN+R32+c/fEs+0El5x1w6NTf9+K78bt4fd26r/b/OtttF+fb0r2P5x3zwhsyat3j/62nE5bnp3p3Xw+/+rcO6Iy7O5269Z7dz8sR9t7Rdb+2vkz392/U62uvzDQAAe+ANAwCAo9GIt2fMSdsnGjLv9qvymz2uND93/Gl1LhtVlaQs4ydckepMT80uy0zNm8cOSnnfJE1PZeF/t35a1res9bMkybi8+RNV+fzU5busOWXyhFT3LdsxfUy7vw/MNi7Ptx6elrdV7brd7fpXTciUL30zAzZf2BaQtCkvTXnfsiSDctq7Z+f+k6pS3nHdUy/MNf89M+VvnZzrdryJUZbyAdvLfEzKi3Zdp/rqG/KRCYN2bKu83Ubf9p83ZcZFnQcy/U8YnUu+MDNjzrwyr506e0d9fO7Ob2fKWf06Xad84Km55Au3ZXDZ2zP55nZ1tuPYkvTdvV7K+x6zY37H89H9uhPzrS9cnJHbz1dzaYc6q8qU7/w4/zRp0G51uYtOytRV+fZkZ/m73ndrPXWs23RzrFX53P+blktGbf9sU1b9ud3sSTPyu/94T0Z2cpD9T52YKf92Qxp++st218kej6LtOtrH8w0AAHvgDQMAgKPR5JHZcTt68+I8cEPPVnvg32dnYVPbxBnn5lMdn/K/akLO3H7jc8mcTOuiG6ORZ0/N+bt88tH81djOb352Ze+3cWt+/eeNrX/Wr8nSOffkjpl35o6757eO2ZAk5afmko9+tMstDD6pKuVpyOolc/LzmXfm1wvWZPuq6T8uH/nK1FT3pPAjPpTrrxjX5c3yn3/4e3lgY1K/enF+/f2vZ9onr8qV192aXy/Z1LZEWUa+9YpM2bHG/Hz7D8tby9K0KTWPzG49tpmzs3Tj9mX65fy/6VhnB8ebvjw9b+s872h16fRMaX/Dfv3yLNx+Ph5d0+P9rHrmySxdsvNfzfp2M9cv32XeE8+sTpJUT79pZ1jQtClLf/H1TPvk9Nw4c/t1UJaR7/h052+wdHIc7z5jZ4BQv3l5ln6rbWLEhzLz+nZhQdOmHddc63nclAduuCrXZXVqlrQ/juXZ2LRzFxs7HuMLyeF2vgEAOHJ4wwAA4Gg0rF+7m7Wr80BP11s2PT+b/56MeXVZklPz6k9UJe2e8p8y4dQd2104Z8bu6zeltQV60rn5yKXJAz9s+/zqN7QGDdvnd2c/tnHb9G9mzOqG3PaZW3fpfqn66pm5/6rWG/jlo87JlHw9N3e2gfrl+fnnL88Hv7vzmN/05dn5/uTWu+PlY9+QKSOu7zIoaVWVKf/+sZzfv7tlvpmpfz0nWbC43Rscd+aOr27M3U98NOP7Juk/OCPbrVEz/Uv5dsW5WXjTjNzRfv+Tbsrc71zYGmScNC6XjUgeOJjjUUyakeldvB2x3SVvPSODt088c2f+5vx2b7hcf08uOWtQj3Z1x2cm545201N+/Md8rm1cjo1//l5e+7++2WGN9+Tad4xuu0Y35YHr2j2BP/PW3Lbxrsz94OikfHT+6h8n5PMfndPN3qsy44qJbcexKQ/8712f5r/sCx/K+QPbJuqfzG0f2fXNlTFjR2fhguVJlmfqO+9st90PZeafprVdH5vy2H9dmMnf2H3vh835BgDgiOINAwCAo13Dhp4HBklu/MFDWd32965P+b8n553a9oR/0+I80Fn383WLs3B1kgzK+e/d/iR/VWZc0Pa0/ZLFHbo4OsDbWPbNTOsQFiRJ5izfcUwdb8Tv4i8P7RIWJMlvPnnPzrcuik/JmMl7KP+OwaYbsnRJ193F1Czo5DgmnZrB29/gWP2XDudtdj7/mQ43j5Nk9ZNZveOp82MyeNIeyrdfJuT6ae9ofap+/ZPtnnbf1ZC+O9+t2Pjc4z3oDusA+fu35+ztScWTv8jUDt311PzrnB3nsnrk67vf1qRpedMZbX8//tMO2/pQLhm/M/So+eXnd+3mKsnCBYv3uvi7OhzONwAARxpvGAAAHO36D84lyS5Panfrh/fksWsm5s2D0/oE8+uSB+5PMvnCvKLtZmz9gt/m852tW9SQpYvWZMwbB6V83FvyuXw9nx9xZc5vu/G6sObFnHhGZyse2G2MuXRqpky+MOefWZXB/XvWB37XHs+q9cmYwUlSlgHDulv2PfnelW2DTS+fnRsWjs5No7pb/qP51r0XtwYYRQNSNaKtK536Nfn1/5ve6TmrnvChTJnylrzplaMzuH9Zyg9hi796+vb+/Bsy77/uTP0VUzsNX25+fHk+N6F1UN7+Z74lnxr7zdy44BAU8OWDdw70PfDcfP/eezosUJYhO/7s4hWQEe/IsifekRSVtb2p0JB5v+g4lscpGbJj9eVZ9MPu3lTYP715vgEAOPJoTgIAHI1Wbkp90nrDs++AnLZXK/8o/zHnyrz5nVVJqjL+byYk98/JJRdt72amIYvuv77zVfv2S/03/pCaN16Y6uLROX96Ul10ZutN5c3z87PfJ1e+dQ+7359tTJqWmV+4POd3GPi4fnNDjwfP3d2dWb3xhuzsY6czL2bjkuSy70xtDVqyKQ/ccmWGXPDHPWz7ZRk56tRdb7o3bUrN3P/JHb/o8HbCiMtz07c+nUtG7TqOw/4dW8/Ub1iTjJiWWy5v7e6nfsn/5Lovviwzrupihen/kwfePbq1y57+43LNz5/Kp9Yvz/I1DUn/7rsz2h9TqobsnBhYlZEDu162S8Udbso3rU7Nox2W+fuX7Qwe0pAX79+H/exJL55vAACOXLokAgA4Gs1dvbMLnr6nZvzf793q7Qc/rh77tzk/VTn/pLYuWDYvzq+/2M3K938v855p/XPMhBm55g2tT5qv/v2PcuPwY9Jt1/77tY0PZeb1H9oRFtQvn5/brrsik4afkhGn/U+W9mS/nbo81Xu88dyQFzMjU97QWkcb53wtUzvpl3538/OzmXe2Dc48JwuXb0qK+6X6dR/KTb+YmWt2DMw7Idd/a9rOm8cbn8zPvzotk887JSNOuz4PdNE10IGytWFjpvz7pRlTnqRpeX4+Y9oeurn6Zia/fXru2DGIc1I+sKo1HDnh4N3s/tnKF3f8Xf/k9oGCu/j3i/mdb2TzmtYBiJe3lb24Km/7l2m7DnY9a2127qks5T0ZQHmv9O75BgDgyOUNAwCAo9H938u8Zy5M9UlJ0i/j/9e0VH9jxp7HD9iu/eDHVaNz2ev+NiPbborWL/5tbux25Tm57reLc8lJo5NR78jbipNkTR67+0fJa67oYQH2YRvT37FzENpn7swV7Qfa3R8jTsmAHQnFpqxa1MkyTVtz2r+8IyOLk2yckxv+8Zs9rOsf5bpP/qjddFU+9/N7MmVsWdJ/XC6bfnGue/+dyeQr8uZRbTfaN87J5996eW4+hAPd1pe9JVPOar15XfPT6bly1h5WSJJlt+b2hVfsvOn93Pzc8eDy5KRzezzo8d6qWb429alqHdy6rCG3ffKqvRq/I0ny3G/z2jdOS/KhzFw4LecPTMrPuDy3TP9eJk1ve+tj2fKs3pxU902Sqoy8oir5167Hq9hrvXy+AQA4cnnDAADgqDQn1/16cerbpsrPuDwz//PyXZ+STpIRF+dzdz6cx378od3m3fizR9P6IHNVxlw9ofVmeBqy6L6v73HvNf/6y8zbnNbuXZLkmYfyHz/cuyPY221MOWNnVze7DbQ7aUAG9GSnReW71cObpk3MmO2P4Wx+Mg98q5P1ikdn/Bltffvf8s89urlbPaKzrnmWZ/XmrTumyvu29YM04WU7e0Ra/Zddtz9iUAYU7Xl/+2PwWeNa97/8nkz75OyerTTppsyYvP0Yl+fn0ybnyk9elSuf3HCQSplk5qIs3T5AddWEfGrK/nR/9M1M/a/5bd+hsoy57IZ2b3z8OAvbnYMx77w2Uzq+ZTCiavfvW0/18vkGAODIJTAAADhK1UyfkTuWNLRNlaX6oum5f/5d+d6Xb8hNX74hN916Vx771Q2ZctagDJ4wNd+/fuKuG/jGXZnb1q/RyLNa+67Pxkfzsxt6svev57bfr9kxtXTu9Xv/pPdebuNny1ft+Lv/me/IjEtHJxmdy75wa+b+x4XdD0Gw3UkX5/6HZ+b6j1+cSyZfnhk/np1bLtp507nmt1/r9u2K+sdvzZVf7MGT5pNuysz77srcH8/Ipy6a0HpjecSETPm3u3LVhJ191q9a3jZo759WZ0cvNCPOzbemTEh1qnL+lBvyu198KGP69uDY+o9sPe/t/p03uHTH7NLB5+amL9+Qay7tagNr8usbruzhWxsfyszrL9xxw7zm7un5YE/eSthfy6bn27/dfs30y/nX3JXfffmjedPY1k/GTPpobvr5w5n7nff0aHM1X7wq33687TvUd1w+8pWpbce0PNNumb2z26+BE/JPM7dfNxfnA1+4JXN/MTt393A/uzkQ5xsAADqhSyIAgKPWnEz94DUp/9Z1uaSte5PywaPz5smjd1+0fnke+UXHJ8fbD37cauOi+3JzD/d+291/yKdeMzGDmxfn11/Zt+5a9mYbNT/9Q5a+49SMLE/Sf3Q+cP1d+cCOsZkbUl9flvLyPe+zvGpcLrtmXC7r8Hn9kz/KtA9383R9/eJ8+x960u3TuFw/7cJUFyeZ8J5cM+E9uaazzT13T26b2nbM37gvj31iQmuXS8VVedu/3Jq3/Uu7ZXsyEO7gcblk8rguZ5efOjGXnJosbb4q13XyJsfqWdfnb3v0lkhVpvz4Yzu7h1o9Ozd2V28H2G3vvybj770pl40qS4r7ZeTkqfn+5Km7LtR0Ra5/3Y8ydY+DFS/P5//9nvzVNy9OdXFSftb7cv2UH2fyzcuTH16Rq15zT2659NTWLpBO6OS6mXRlbjrrR7my46DJe3IgzjcAAHTCGwYAAEezZXfmyjdemGn/NT81mzuZ39SQ1QvuzLQ3XZipnTwB3n7w42RN5s78Zs/3/cMrc/ZpozPi5ZPz+X3tf31vtnH/tPzNF2enpr7D5xufzB3/Ojn/9w+bOl1tF8/ck5vnLM9um1hwa6b+3bRunq5vyNLbZ/TwOOdn6lXTc8eCNalv6mR2U0Nq5nwzUydf2S6c+WYmT701CzsOdlu/PA9846q87u4D2H9+Z9bPyc3v/9Gel0tSPeXadm9JrMmvr7sitx28knVidqa+cXKmzXwyGzur383LM++H38u39xgWtJl1VW5s/9bCJ3Z2P/SbqRfmiptnZ2lngxBvXp4HvnF9rtvbsCBJr59vAACOWAV9B5ywrbcLAQDA4WHMpIszsurUnH9SQx5Y8HiWzpydhd2t8LobMvcHF7d2w7J6dqaOO9Q3f/fF6Lxp8hvy5rHJI7+fn3l3z+n+qf/r78nzl57a+veTP8rQ109Lxk7MJa+bmFfnD/n1/XfmNwsOZllPTfWp52ZMFueBRU/tobxVOf+iiTn/NYOyasEfMm9P56+Hpvz4j/lc203+pT88Ja+duocVXjKqcv5F4zLyzHNz2uaH8sifn8wdsxYflD2NmXRxRp7+qpzf96k88OijB2g/B+d8AwBw9BIYAACwzy77zsO5ftKgJEnNTy/P2R+d08slOgg6CwyOMrsEBt8/Ja/9TC8XCAAAOCiMYQAAwF45/53vyeDispz2lr/NB9vCgmyenzv+/QgMC+hgU1Yt7e0yAAAAB4vAAACAvTAhH7xmRt5W1f6zTXnghqty3b6OQwAAAMBhQWAAAMBeeH2qTmg32bQm875xTSbfbJDVI9nCe3+aO1YOSLIhC5f0dmkAAICDxRgGAADslTGTLs7IAUnq1+55wGAAAABeMgQGAAAAAABACnu7AAAAAAAAQO8TGAAAAAAAAAIDAAAAAABAYAAAAAAAAERgAAAAAAAARGAAAAAAAABEYAAAAAAAAERgAAAAAAAARGAAAAAAAABEYAAAAAAAAERgAAAAAAAARGAAAAAAAABEYAAAAAAAAERgAAAAAAAARGAAAAAAAABEYAAAAAAAAERgAAAAAAAARGAAAAAAAABEYAAAAAAAAERgAAAAAAAARGAAAAAAAABEYAAAAAAAAERgAAAAAAAARGAAAAAAAABEYAAAAAAAAERgAAAAAAAARGAAAAAAAABEYAAAAAAAAERgAAAAAAAARGAAAAAAAABEYAAAAAAAAERgAAAAAAAARGAAAAAAAAAkKT6QGyssLEpBUUkKC4tTUFiQpOBAbh4AAI5y27KtZVtaWpqyrbkxLS3NB3Vv2vcAAHAwHdr2fU8U9B1wwrYDsaGikvIUFZceiE0BAAA90Ny0Nc2N9Qdl29r3AABwaB3M9n1PHZAuiYpLK/yYAACAQ6youDTFpRUHfLva9wAAcOgdrPb93tjvwKCopDyFRQe0ZyMAAKCHCouKU1RSfsC2p30PAAC950C37/d6//u1cmGRJ48AAKCXFRWXprCwaL+3o30PAAC970C17/fFfgUGBUUlB6ocAADAfjgQbXPtewAAODz0Vtt8P98w8KoyAAAcDg5E21z7HgAADg+91TbfvzcMCgsOVDkAAID9cCDa5tr3AABweOittvl+xhR7V+jyij455phjU9G3MsXFnl4CAICOmpqaUre5Ni+++ELq67bsxZoH4geF9j0AABwoLdta0tLc0ovt+713yFr1Q4cNS0XfvqnfsiUvvvhCmpqakmw7VLsHAICXgIIUFxenvKwsw4a/LHWbN+f5lSt7u1Cd0r4HAOBosPGFF/d53YLCghQVFaW8T58cN/D4NB/TfNi277cr6DvghH1u1Zf26d+j5apHjEhzy7Zs2rQxfkQAAEBPFKRfv/4pKixIzbJlPVpj65aN+7VH7XsAANjV/gQG7RUUFqT/gGMzYED/Q9a+3xf7NYZBTwwdNqztx8SG+DEBAAA91dqGbm7ZlqHDhvV2YXbQvgcA4Ohx4Nq721q2ZeOLL2TDhg2HVfu+o4MaGJRX9ElF375tTx4BAAB7a9Omjano2zflFX16uyja9wAAsB+2bduWjRteTFFh0WHRvu/MQQ0Mjjnm2NRv2RJPHgEAwL7alvotW3LMMcf2dkG07wEAYD9ta9mWDRtfOCza9505qIMeV/StzIsvvnAwdwEAAEe8+oaGw+IHhfY9AAC0qq4anuqq4bt8VrN8RWqWr9jjulu21GfwkMOzW6KDGhgUFxenqanpYO4CAACOeE1NTSkuPqhN9x7RvgcAgOT8CWfnM5/+WB6cM7fDnLk9CgxampsPi/Z9Zw5iqbZ1+H8AAGDftG9bFxwGZQAAgKPbg3Pm5v9+6Wu7vWXQfrqr8GBby+HQvu/c4RljAAAAAADAYe7O27+bB3Z706DV+RPOzivPftMhLtH+ERgAAAAAAMBeqq4angfmzM3HPjWt0/l33v7dQ1yi/VfY2wUAAAAAAAB6nzcMAAAAAACgh1rHJui8G6KXOm8YAAAAAABAD9UsX9HluAUvdQIDAAAAAADg8OyS6LQJEzOi7/ap2iybNS9P9GaBAACAfaZ9DwAALw2HZWDw7n+4Om8f3pitW1unS6clK+d8N5/4l59kZe8WDQAA2Eva9wAAvBRty7YUFBZkW8u2bpe78/bvdvp561gHLy2HZWCQJLWPfTcXfPonSZJhl/6ffOfDl2TqpJ/k6lm9XDAAAGCvad8DAPBSU5CCFBYWprmludP5NctX5GOfmnaIS3VwHbaBQXsrn9qcje2m3/2/b8nHxw1sm2rIppp5+c6NX8ztS5JkfD7+pSl5+yuGpLIoqa2Zk+/PuDb/taRt8XdNz8wPjc3xO7a2PvO+eUWu/km7HXzqK5k9qWq3ciyb9a68/8Yhefe06fnw66tSWZrUPj8v3/7H6fnBirZyHfdIJk75jyTvyrW3vS8T80g+ftm1eXTUe3LttEsysboyaW7Myvk/yYyV4/OlLvbzzwvfl49d9rZMqK5MaVFSWzM7X33/F3PX/lUlAAD0uk7b9zva0Z19Pjsf/9r0vD2z8v6P3ZKVGZtp35iWCet+mLdf85MMu/jqfPED52XEgJJkywtZNOuWTL9xdtvbCxfli7ddkfEDdm537fxbMvlf7j4ERwoAwEtdUXFRmps6DwyORIfvoMdlA3PBpIn5u4//c/7fZ16d4595JD9oe/qotE/flK75bSb+1bsyceq38mjlxHz8o+9Jkrz3367Oe09en7uuuyITLv9i5uTV+fDn/jnnbt/uMX1zfPOT+cGNX861Nz6StX36pqyow75/8d1cu2N+Q56488u59sYv5z9/kZw1dXo+/vpkzr9fkQlv/ES+v/b0fPif3rOzXH1KkyRnffaiTGh+MF/62n/n0bwrX73ufZmQeZkx5aJM+NgP8tBTi/NoN/tZOexlOf7JH+bT778oE6b8JCsHTczffXbswa93AAA4GPbUvm9rR7e38/M/56vfmZO1p16U6R8YkmEf+NtcWLU6v/rqT5Lxn8gXrzwvpQtvyfvfeFHe/981GXHxJzP9A0PatjIw/Qc05Ik7Wtvac9aXpH+fkkN22AAAvJQVpLi4NAWFBb1dkEPmsA0MKodPyPv/+tJc+MpTMqJ/srXPwJw2vJMFa1s7Qt1U92KS9+UNZ1Rm2UNfzFd/sypZMTvTv/ZIVg59RS57V9vygypTun55/nPW7PxqVm22drbzJfPyq3bzG9bNzq9mzc5DS8bm3eOrsvah/8j036xK8nT+6/6nsnXE2Lx3lw28K+9/zcA88asv5vY5TycfmJAxA5bnns9+MXctSbLkR/nSf87rZj9Jbr02/zDjJ3l0xck5t/qprFyf9B948oGpXAAAOMT22L4vqswFkybmgknjc1pnG5j3lXz1vvU5812fzfRJp2blr27JV1ckZ/3V2IzYuji3/39354kkT9z62dy+ODnz/EvbVjwmlX1eyDO3tLa1Nx09D4cBAHAAFBcXpbSsLAUFR0docNh2SVT79N257NPb+wkan+m3Ts+H/+k9+cEnftT60fA3ZPbP3pCUlqS09k/5wawFSU5PZZ/arHt61c4NzavN1lTmuJNaJ9875NjUrlu+j6U6Of0qk2HnTs/sn7X7eMOCbE1SmiTVF2TOvUm2Pp0f3Ns2f1BlSmvXZ9nejHEx6qJM/8zfZuLwZO2K5dnaZx+LDAAAh4E9tu8Hvjzv/+uqlA6syrAPL8hXP/nZ3bbx0Ix7suhn78uZfeblS9cvSJKc1r9vsn5VftBuuY0NDcnwIXl3ktsnD8nxteuz7KAeHQAAR6yCgpSWlSUpyNaG+j0OgPxSd9i+YbCreVmyujal/Yfu/GhFW5dEk67I9IUD894pU3JBNmdrc2X6DW636vDSlKY262paJ0ccU5mNG5/ex3K8kIatycqHprfue/u/y6bn9u2L1PwqE944Pb9ac3LePvVdGZYktY1Jn37txk3Ys49f/ZFM3Dor//CWv87kK/4xC2v3scgAAHDY6aR9v+aRXHbFlEx+14+yqM/YvP3S3dc693MX5rT1f8oTpWPz9itbuxxat6UxqRyYCzouvGFVaxu9emAqazfniYN0JAAAHPkKCgpSWlaaPhUVKS0vTVFx4RHbTdFLIjA47S1X5+1nVGZdzWOdzF3V+lpxUUn65e48uqwxp517dS4YniRD8t6p4zOs9qnMmZlk+EcyqvqFLPv9gn0syezc9+cXMuysv83fjWr7aPjYnDWq43LzMv3mOdn4iksz7dIhyf8syBPNJ+eC6y5qDRByct596fa/OzMxJx6bbFqzoPWHzaj35KSBXS4MAAAvKd2174e9aXAGljamdk2HGROuzqfPLc287/9jvvqb5zPi4s/m48OTXz3wVNYNPD2TL2/rvnPCJ/L2MyqzbPF9SYbk0y+vyrqaeXn0oB8VAABHsoKCghQXF6esvE8qKitT2b9f+h3TP/0G7OW/Y1r/Ha4O2y6JKsddkTn3XtE6sbU2y+Z+N5/+/2bvXGB7l0RFSbauz6M/+0luz6pk+ndz4r+/L9O/c17+ubkkpc3LM/s/v5IfJJn2fy7KaUXJaZ+5O3M+s3NTI5LtVeEAACAASURBVK7873w1f52Pz9xzue76ly/ntJuvzoe/9pN8YGuSomTtQ7dk8ufv3nXBOdfmv35/a6b99Sfy3gc+m3/+dlW+8oGPZOYvr8jWlCTr5yQ/vHvnmwm7mJ3b516aGZOmZ/bPGpOtz2fhKq8YAADw0rXH9n31BZlz7wVJc21WPnZ3vn1rMuKV22eOz7R/OC/9H/9urv9lsvKXt2T2uOl597T35faPTc+1I7+Sz7/vK5n9141JaUk2/eknufbfFiSfuTnvPiXJKZ/InHs/0W5fV+RXX0ou2NFFEgAA9EBBQXZ7r2CfXjQ4fN9OKOg74IR97nSptE93Sci2nPbyM/L88yv3dfP7Zdi4CTmz/+Ysum9Btpdg2nfuzpjFF+Wyf2u/5Cdy270Tsu6mngUGO4wanwuqS7Nu8Zw82uOxCYbkrNe/PP02/imz56/a8+KjxueCoY27HAMAAEenoUOH5Yk/PZ7uflxs3bJxv/ZxOLfv9+zknDupOqmZnYeWtH30mZszZ/SfMuH9X9llyWnfuTtvWHeLwAAAgF5zKNr3++KwfcNgf62cP2cvbrJvzrqH9nIHS+blV0v2vNiuVuXR+3oQFOzXPgAA4Gj0dB6a1fOxyjaunXMQywIAAC9NR2xg0JlFv5ud9bu9DfDn3Dfrxazs8VsCAADAS8JjD+VX657f7ePW3wV78SAPAAAcJY7YLokAAOBIoksiAAA4chyuXRIVHvI9AgAAAAAAhx2BAQAAAAAAIDAAAAAAAAAEBgAAAAAAQAQGAAAAAABABAYAAAAAAEAEBgAAAAAAQAQGAAAAAABABAYAAAAAAECS4t4uwJ6UlJamok+flJaUpbC4OAW9XSAAAOiBbUlampqytbEhdVu2pHHr1t4u0mFB+x4AgJeio6V9f1gHBgMGDEhpaVnqNteltnZdmhobe7tIAADQY8UlJSkv65NjBhyTrVsbsmHDht4uUq/SvgcA4KXsaGjfH7aBwcBjB6apuTmrVz2fHY8defwIAICXkKamxtQ2Naa2dmMGHHNsBh47MOtfWN/bxeoV2vcAALzUHQ3t+8MyMBgwYECampuzYcML7X5E+DUBAMBL0bakINmw4YUMGHBsBgwYcEQ+idQd7XsAAI4cR3b7/rALDEpKS1NaWpbVq59v+6Rg53/9pgAA4KVkW7JtRyN2WzZseCGDBw9NSWnpEdvnaUfa9wAAHDGOgvb9YRcYVPTpk7rNdW1TBe1+SPg1AQDAS0xBUtD6q6Lth8W21G2uS0WfPtlwhPyg2BPtewAAjhhHQfu+sLcL0FFpSVnqG7bEjwkAAI4MBdv/l6Qg9Q1bUlpS1stlOnS07wEAOLIc2e37wy4wKCwuTlNTY+uEHxMAABwRdvyiSFNTYwqLD7sXfQ8a7XsAAI48R277/rALDLYnM+16NgUAgCNAQYe27tFB+x4AgCPTkdm+P+wCgx2OpFoGAIDk6G7jHs3HDgDAkekIbOMevoEBAAAAAABwyAgMAAAAAAAAgQEAAAAAACAwAAAAAAAAIjCAw0hhCot6uwwAAAAAwNGquLcLsL8KiytSsuMma3MaGxrS0psFgr1QWD4oLxtxSk48oTL9ykqyduE9mbvCFQwAAAAAHHov+cBg8JjXZ/ygxjQ0JklRSsqas/5Pj+bhZ1/o7aJBt0qGjM/Escek7vmVefbxp7L2xRdTt1VYAAAAAAD0jpd8YJAktU/PzewnN7ZO9BudieefmRHP/y7LGnq3XNC1QRl1Zv+smPvrLH6xt8sCAAAAAHCEBAa7qNuSunaTFSeel/NO7tM21ZK61U9l/p+fTV1zkpTl2FPHZdzJx6YiLdmwYmEefnxlGpMklRnx6nMysnLntjY9/XAefrY2ybCc+YaTUvv7B7OsrnU7Q19xXsY0/zmzHt+423pJktqaPPjIE6krHpSRrxyTkceXJY21qXlsbhat6STZKBuW0eNOz4hjy1LYXJeaBY/k+eMnZOzgjguuyYLfLkztkNE587ThOb6yMNm6MU89OjdLXmzM4DPe3MU6C1J74nk5r/KZzHp85W67r9hl3u71NHfxyjRs67hWd3WWtnobnRParfHcol9n0Zq2czFiTEZXHZOK4s7WTVJxWs55TXX6ddjrjuX6nJhXjDs9LxtQmNRvzLLH52fx6rqdx7PjOkiyenFmPb4yFcPG56yXD8qA0qThheVZMH9RVnc8HYPGZtKILa3nr8N0ZTf1u7p9vRW2pHbVk5n/2FPZ0JzkmCE5oWV15m05LsNPfVkGF9fm6WeeyoaGLvbZVVna6+SaeWxV3Z7rZcd57p8Rrz47Z257Kj+f90zKTzwvryh+Jsv7jszYYRUdrtfCVHR6zZV1e/2n4zXX7/ScN/64rPj9g6k7qZu67O64d62Ebr7T3c0DAAAAAI6IwKCwuE/KyppS3u+EDD/5pAxYsTjz2m68FpYUp+zFJbl7/vKkqCLVY1+bc0bW5t4/r0vlKefk3KFr8uBvHs6GlooMHzch44avydwVjUnKUlHZmJr5j2TZlmTIma/PySXbx4guSnl5cRraJkuGjM2YYWUpW1WUpDY1C+bkuYKk30nn5Jy+z2bWoueSbY1pSP+MPGd8hq6am1/OW5eWshMz/vxxGT774axobndARcMy7vyxqayZm1/+fl1aSofk+NK6rF8yJ/c/mWTwKzLp5No8/PDT2ZTmNKYox1e25OlHZmVufUvKqs7JpFeOyvOzF2Vtl+skFSXFKSvtfJTdwnbzyk48O+cOXddaTzkuo849O+eeUrvzrY4duquzJAUlKS+vzZJ7H8uq9Msp57wqFW2zy6rH57yq2jz86O+yfktDBr/yrTm9pMOY3FueyaNz/pLCtnUrn74vC1YnLU11rXU2YWRKnngov5yzMek3Ouedd05GP3xvFr/Ydjwbn2k9F0nSXJ/CwePz2pcX508P3ZOaumTAyNfmteeemQfvW5QX2ochhWUpK2/cOUJ4u+nu6rf1+lqXufc9nLVbKzL8lRPy2nEtuWfeM2ksq0hZKnPmq4qy4tkXs67/y3LOG16Wpx+8L0s3dbLPrsqyh2umR/XSdp4Lh4/OqOancu9jz6al7Ro4/sSTsu6Pj+Tnj9WlbNjZmXjWuLww6+GsaC5KZRfXXNfXf1LZ/porODYjx5yUY8vrsrqw+7rs8rg76O473f33HQAAAADY0/23l4SS40/M6FGjc/KwQTmuMmkurUxFQScLtiTNSRrrG5Icl+rqkixbtLj1ie9tdVmxYmMGDx7atnBFKsq3ZMOLdWloqEuXXcsXV2Xs6UlNzc7nnlu2tq5T39SctGxNQ0NdGrY2JsdUZ0TJ8ixauq51YOaGZ/OX9cfmhON33WTh0OoM3/ps5i9dl5ZtSRpWZe2m1hvjrdtqSVpaUt9Ql4aGhrSkMaufWpy19S1JUVlSV5u6PhXpk+7W2b6z0pSVVaSsrCyFndVZKlNdVZnVS9vqqXldlixdl8qq6hy727J7qLO+fVNZuzHrG+rS0LAlje3ml5QWJ5tfzNq6htZj7sy2xjS2W3d7PTc2b6+zlVm8fGNakrRsWpxFywpzcvWwnetvPxcNdWloKsrLqgel4dnFqalrSdKSDUsX5emCqowY1HG/LV1+U7qu3+NSXV2R1UsXZW1DWq+vx57K6kHVGVGRVFT2STY/m4cfWpCnVz6bmj8/mPkryzPqpHblLSxMebfnpt2iXVwzPaqXJEn/nHJyRZYvfSZ1Te1OzPqaLF3Xem03rFyaZVu2X6/dXHNdXf8dVJ7yigxd82ye32NddqyP9gOdt9fdd3pP33cAAAAA4Ih4w6Dh+T9n/o6n3csy/FUTc/aodbn3z+taPxo0OpPeMCopKUlZ3co8+HhtkmNTUV6Swa96c4a3u0HdsPovrX9U9ktlXW1q042WsgwdMzJZ+mBWVJyTkWV7KGhZRcrKjs34N7S/SdmY5/6y62IVfcqS2k3d77vjpo8bnbFjhqWyfmNW1xamKD0cPLff0IwedWxS2jcnDGzJ0od+1/qEe5IMPTMXvTVJ6rJkc7t1Ntemtrwyux3unuqsoiKVW9Z12qVM7bKns+J1ozNx/KBs2JpUDEiyqZMFu9p0J3XW2NSYHN8/Fdm9y6WkT8r6JLXL278l0ZjGpuS4fpXJ6nZbWrcyK4rH5txzK7N2c0tSUZns8exUpKK8Lhva11tzU1pSkcrKpL6+IWncukt3OHV19cnQ1vLWJUnpcTl5VHlaKvpncMXG/OH+eTturvfk+HtcL9vP89aVebjbw2pOS0vSp+349/maa25O+o3OuKFrMv/BTTn91I4JTRfa6qOxuCzHH98naxf8LvNXte8/qqKb73R38wAAAACA5AgJDHbVkA0b61PRryJJW2CwZnFmzV+eJK1dp4w7LbMe3pCtTY1Z9ocuBp2tqEjl5s5vbrfakobKMRld8FR+t7IhZaf2oGjNTWlsWJF5v12UF7pZrLGxJSnrk7IkPRq3uey0jH91/yz/7a9T05CkcnSOr+rYiXwXNtRk/mOtdbPs9Dfn7BOHZOmiVa3znl+Uu+dvyMjXnps+5dl5j7y4MCVNTWnquK091FlhSXGytaHz28pNyzN//sBMelWf1P7puTT2HZTjO1uuC53WWUFRsnlz6pLsXhtNaWxMysorkh0lLkphYbKltsNd8+aVmT97XQYcOzSVpUmO6ZPhx+2pRFuztal813orKExSl9q6pKV8axor+2WX6KFdeZMk9Wuy+LHFqU1Jqse/OSNPrMzzXdzQ7+qa6VG9PL8od89fneGvmpgzT63J7KVdXZ0lKSlOajfX7tc1V1tXlJFjB2X1gvtSu62qR+skaVcfSeHwc/K2k07M4lVPtDverd18p4d0/30HAAAAAI6MLonaKyw/MaefWJG169Z1Or+lJUlxYYqyKiufS6pOPjFl27t7KSrZ0fXL4KHHZcPaNd08M90/L395YZY89mzPB01dtyLPFQ7PKcMrdpa3qGS3xRpWrcoLx7wso45ve4a/oCKVFd28vtCvMpUNW7Jpa+tk2YBOnv7fk4KK9KssSUP9lg4zNmb1msacUH1iWktaluEnD0/hcyuytsOSe6qz448bkBc2dHG3tmhYxr1qUNYufDRLVz6btfV7V/zWOjshI/q1XdLFVTm9uiTPr+zqmfy6PPdcbY6tPjkD2rq3KRkyMiNK1+UvHQ8sSZobsmHts1mx8tmsWNeTGGdVVj7XnBOqd15flaeMyNDaNXmuNq3XQumwnD6krF15y7J6dSflLeqfPn2Shvqu99vVNdPzemnIiseeSN1Jr8jI9qNKl5TuKH/JkFNSVbwuz63Lfl1zZSeOytBVj2XJXrxBsqvCDBhQkTRs6RCodfed7v77DgAAAAAcIW8YVI48LxeNbP27ZWttVi+dm7ntxhTY0SVRQVEKWzZkyYJnUpek7vFHs2T8WXnTpJFpbEwKCxuz/I+/y+Li8Tl7eGEy/LW56OXtdjT0vEzMg5n9ZJKU5IUnF2TFbo/Zd2Pbqjw295mc8+rX522jGtO4rSiFTSvy6JxFWdt+0OP6JzL30T4571VvzIWNjWkpKUpjzR9y/5+7uBm/7pk83XBOzn3joDS2tGTD8tV5YVtFZ0vubuiZueitZybbWlK39tnMX9ZxIONkw5L5WTL+rEx608g0piQlW5bnocdW7brQkLO7qbPf5+ljXpNXDFiXeYs7e/+gLENfMTqDVy3MPav3cQDa7XV27oUZ0diYlBSltuYPmbuq6+01PDs3cyvPyXlvujCNjUlJSV2WPTI3zzd3ucpeWdv++moqSsm2F/LYw61PyLdeCwNyzqsn5sLRzUlJSRpWLMiD7QfgrTwxE996YtLckg3PL86jKxuTwXs4/t2umb2ol6ZnsmDJy/KmsaPz3IOLWz8rG5bxbzgpFSlKWXFdnt5eP/txzZU0P59FT3b3jk0XttdHksYNazK/7a2h9tZ29Z1e19LtPAAAAAAgKeg74ISuhpjdo9I+/buZuy2nvfyMPP98Z/3Hd23o0GF57rkVKShIkkP0+G9RWcqKk8btA6wOOTsXDXsud3e4ITl03Ftz+qYHM/vJ3W+q763C0oqUtNSnoam7m5WFKSkrT5paB/btyTaLmnu27L4oLK5ISboo8x7q7P5lTSnadvDK1q6Ue1VnSXY//wdaUVnKilo6Hfh3n8rbra62t/f7qTz19ZnY7+ncPX9FSspK0rx19wGpD/Y1t8+6O6cH+3wDQLe2Zdu25IQThu9TO/mJPz2e7trIW7fsXzv1iGnfAwDAIXF4t+/3xRHxhsF+a25IQw9veNbWHZiT1LK1rgfjE7SksaHrURQ62+bBvAHa0tSTMu+utm5jWppyiG7O7l2dJdmr879Put3+PpS3W11tb3/205LGhs7P/MG+5vZZd3V+sM83AAAAALxECQw6s+GZzG/YvNvHLzyzOA172bf+UUOdHXFaGpvSsNWddQAAAAA4WggMOlO/Jis6ucnd8OKz+/SE/VFBnR1x6p59MLN6uxAAAAAAwCFT2NsFAAAAAAAAep/AAAAAAAAAEBgAAAAAAAACAwAAAAAAIAIDAAAAAAAgAgMAAAAAACACAwAAAAAAIAIDAAAAAAAgAgMAAAAAACACAwAAAAAAIAIDAAAAAAAgAgMAAAAAACACAwAAAAAAIAIDAAAAAAAgAgMAAAAAACACAwAAAAAAIAIDAAAAAAAgAgMAAAAAACACAwAAAAAAIAIDAAAAAAAgAgMAAAAAACACAwAAAAAAIAIDAAAAAAAgAgMAAAAAACACAwAAAAAAIAIDAAAAAAAgAgMAAAAAACACAwAAAAAAIAIDAAAAAAAgAgMAAAAAACACAwAAAAAAIAIDAAAAAAAgAgMAAAAAACACAwAAAAAAIAIDAAAAAAAgAgMAAAAAACACAwAAAAAAIAIDAAAAAAAgAgMAAAAAACACAwAAAAAAIAIDAAAAAAAgAgMAAAAAACACAwAAAAAAIAIDAAAAAAAgAgMAAAAAACACAwAAAAAAIAIDAAAAAAAgAgMAAAAAACACAwAAAAAAIAIDAAAAAAAgAgMAAAAAACACAwAAAAAAIAIDAAAAAAAgAgMAAAAAACACAwAAAAAAIAIDAAAAAAAgAgMAAAAAACACAwAAAAAAIAIDAAAAAAAgAgMAAAAAACACAwAAAAAAIAIDAAAAAAAgAgMAAAAAACACAwAAAAAAIAIDAAAAAAAgAgMAAAAAACACAwAAAAAAIAIDAAAAAAAgAgMAAAAAACACAwAAAAAAIAIDAAAAAAAgAgMAAAAAACACAwAAAAAAIAIDAAAAAAAgAgMAAAAAACACAwAAAAAAIAIDAAAAAAAgAgMAAAAAACACAwAAAAAAIAIDAAAAAAAgAgMAAAAAACACAwAAAAAAIAIDAAAAAAAgAgMAAAAAACACAwAAAAAAIAIDAAAAAAAgAgMAAAAAACACAwAAAAAAIAIDAAAAAAAgAgMAAAAAACACAwAAAAAAIAIDAAAAAAAgAgMAAAAAACACAwAAAAAAIAIDAAAAAAAgAgMAAAAAACACAwAAAAAAIAIDAAAAAAAgAgMAAAAAACACAwAAAAAAIAIDAAAAAAAgAgMAAAAAACACAwAAAAAAIAIDAAAAAAAgAgMAAAAAACACAwAAAAAAIAIDAAAAAAAgAgMAAAAAACACAwAAAAAAIAIDAAAAAAAgAgMAAAAAACACAwAAAAAAIAIDAAAAAAAgAgMAAAAAACACAwAAAAAAIAIDAAAAAAAgAgMAAAAAACACAwAAAAAAIAIDAAAAAAAgAgMAAAAAACACAwAAAAAAIAIDAAAAAAAgAgP+f/buPc7qutD3/3tgZjEDo8M1bl4QDXWruQ3KI3UUNbCOl8ePNA33wXRjGhnWUeuXtc/e9HucrT4SOya7zF1m5W/LtjJ+pe6dkEjugkzIQ17BG4ogozAwOlzmxvz+mBkYmAsXxRnaz+fD9YD1va3Pd63F4zF+X/P9fgEAAAAAIIIBAAAAAAAQwQAAAAAAAIhgAAAAAAAARDAAAAAAAAAiGAAAAAAAABEMAAAAAACACAYAAAAAAEAEAwAAAAAAIIIBAAAAAAAQwQAAAAAAAIhgAAAAAAAARDAAAAAAAAAiGAAAAAAAABEMAAAAAACACAYAAAAAAEAEAwAAAAAAIIIBAAAAAAAQwQAAAAAAAIhgAAAAAAAARDAAAAAAAAAiGAAAAAAAABEMAAAAAACACAYAAAAAAEAEAwAAAAAAIIIBAAAAAAAQwQAAAAAAAIhgAAAAAAAARDAAAAAAAAAiGAAAAAAAABEMAAAAAACACAYAAAAAAEAEAwAAAAAAIIIBAAAAAAAQwQAAAAAAAIhgAAAAAAAARDAAAAAAAAAiGAAAAAAAABEMAAAAAACACAYAAAAAAEAEAwAAAAAAIIIBAAAAAAAQwQAAAAAAAIhgAAAAAAAARDAAAAAAAAAiGAAAAAAAABEMAAAAAACACAYAAAAAAEAEAwAAAAAAIIIBAAAAAAAQwQAAAAAAAIhgAAAAAAAARDAAAAAAAAAiGAAAAAAAABEMAAAAAACACAYAAAAAAEAEAwAAAAAAIIIBAAAAAAAQwQAAAAAAAIhgAAAAAAAARDAAAAAAAAAiGAAAAAAAABEMAAAAAACACAYAAAAAAEAEAwAAAAAAIIIBAAAAAAAQwQAAAAAAAIhgAAAAAAAARDAAAAAAAAAiGAAAAAAAABEMAAAAAACACAYAAAAAAEAEAwAAAAAAIIIBAAAAAAAQwQAAAAAAAIhgAAAAAAAARDAAAAAAAAAiGAAAAAAAABEMAAAAAACACAYAAAAAAEAEAwAAAAAAIIIBAAAAAAAQwQAAAAAAAIhgAAAAAAAARDAAAAAAAAAiGAAAAAAAABEMAAAAAACACAYAAAAAAEAEAwAAAAAAIIIBAAAAAAAQwQAAAAAAAIhgAAAAAAAARDAAAAAAAAAiGAAAAAAAABEMAAAAAACACAYAAAAAAEAEAwAAAAAAIIIBAAAAAAAQwQAAAAAAAIhgAAAAAAAARDAAAAAAAAAiGAAAAAAAABEMAAAAAACACAYAAAAAAEAEAwAAAAAAIIIBAAAAAAAQwQAAAAAAAIhgAAAAAAAARDAAAAAAAAAiGAAAAAAAABEMAAAAAACACAYAAAAAAEAEAwAAAAAAIIIBAAAAAAAQwQAAAAAAAIhgAAAAAAAARDAAAAAAAAAiGAAAAAAAABEMAAAAAACACAYAAAAAAEAEAwAAAAAAIIIBAAAAAAAQwQAAAAAAAIhgAAAAAAAARDAAAAAAAAAiGAAAAAAAABEMAAAAAACACAYAAAAAAEAEAwAAAAAAIIIBAAAAAAAQwQAAAAAAAIhgAAAAAAAARDAAAAAAAAAiGAAAAAAAABEMAAAAAACACAYAAAAAAEAEAwAAAAAAIIIBAAAAAAAQwQAAAAAAAIhgAAAAAAAARDAAAAAAAAAiGAAAAAAAABEMAAAAAACACAYAAAAAAEAEAwAAAAAAIIIBAAAAAAAQwQAAAAAAAIhgAAAAAAAARDAAAAAAAAAiGAAAAAAAABEMAAAAAACACAYAAAAAAEAEAwAAAAAAIIIBAAAAAAAQwQAAAAAAAIhgAAAAAAAARDAAAAAAAAAiGAAAAAAAABEMAAAAAACACAYAAAAAAEAEAwAAAAAAIIIBAAAAAAAQwQAAAAAAAIhgAAAAAAAARDAAAAAAAAAiGAAAAAAAABEMAAAAAACACAYAAAAAAEAEAwAAAAAAIIIBAAAAAAAQwQAAAAAAAIhgAAAAAAAARDAAAAAAAAAiGAAAAAAAABEMAAAAAACACAYAAAAAAEAEAwAAAAAAIIIBAAAAAAAQwQAAAAAAAIhgAAAAAAAARDAAAAAAAAAiGAAAAAAAABEMAAAAAACACAYAAAAAAEAEAwAAAAAAIIIBAAAAAAAQwQAAAAAAAIhgAAAAAAAARDAAAAAAAAAiGAAAAAAAABEMAAAAAACACAYAAAAAAEAEAwAAAAAAIIIBAAAAAAAQwQAAAAAAAIhgAAAAAAAARDAAAAAAAAAiGAAAAAAAABEMAAAAAACACAYAAAAAAEAEAwAAAAAAIIIBAAAAAAAQwQAAAAAAAIhgAAAAAAAARDAAAAAAAAAiGAAAAAAAABEMAAAAAACACAYAAAAAAEAEAwAAAAAAIIIBAAAAAAAQwQAAAAAAAIhgAAAAAAAARDAAAAAAAAAiGAAAAAAAABEMAAAAAACACAYAAAAAAEAEAwAAAAAAIIIBAAAAAAAQwQAAAAAAAIhgAAAAAAAARDAAAAAAAAAiGAAAAAAAABEMAAAAAACACAYAAAAAAEAEAwAAAAAAIIIBAAAAAAAQwQAAAAAAAIhgAAAAAAAARDAAAAAAAAAiGAAAAAAAABEMAAAAAACACAYAAAAAAEAEAwAAAAAAIIIBAAAAAAAQwQAAAAAAAIhgAAAAAAAARDAAAAAAAAAiGAAAAAAAABEMAAAAAACACAYAAAAAAEAEAwAAAAAAIIIBAAAAAAAQwQAAAAAAAIhgAAAAAAAARDAAAAAAAAAiGAAAAAAAABEMAAAAAACACAYAAAAAAEAEAwAAAAAAIIIBAAAAAAAQwQAAAAAAAIhgAAAAAAAARDAAAAAAAAAiGAAAwHtm/esru3sIAAAAnRIMAADgPbD+9Zdzxx13dPcwAAAAOtXjgkFTdw8AAADeZa2x4Gszb0ziZ14AAKBn6nHBYFtDQ0qKS7p7GAAA8K7YEQtuSpKUFJdkW0NDN48KAACgvR4XDOrqa1NaWtrdwwAAgHds11iw/vWVKS0tTV19bTePDAAAoL0eFww2b9mSsr59nacNAMABrX0saH5e1rdvNm/Z0s2jAwAAaK/HBYP6urrU1dXm4IoBUQ0AADgQdRYLbvrW91JXV5v6urpuHiEAAEB7PS4YJEl1dXWKVnas9gAAIABJREFUe/fKwQeLBgAAHFi6igXFvXulurq6m0cIAADQsR4ZDJKkakNVioqaMmTI0JT3OyjFboQMAMABYNDwI7bHguLikhx+1Afyv7/zwxQVNaVqQ1U3jw4AAKBzxd09gK5UV1enpFBI37KyDCgbkF7FxSnq7kEBAMAeaEqyraEhdfW12Vi90WWIAACAHq9HB4Ok+Z4G1f7nCgAAAAAA9qsee0kiAAAAAADgvSMYAAAAAAAAggEAAAAAACAYAAAAAAAAEQwAAAAAAIAIBgAAAAAAQAQDAAAAAAAgggEAAAAAABDBAAAAAAAASFK8v19g2LAR+/slAAAAAACAd2i/B4O1a9fs75cAAIC/eH4RBwAA2N9ckggAAAAAABAMAAAAAAAAwQAAAAAAAIhgAAAAAAAARDAAAAAAAAAiGAAAAAAAABEMAAAAAACACAYAAAAAAEAEAwAAAAAAIElxdw8AAIADV0mhkL5lZSmU9Emv4uIUdfeAepCmJNsaGlJXX5vNW7akvq6uu4cEAADQJcEAAIB9UlFRkUKhTzZv2pyamvVpqK/v7iH1OMUlJSntU5b+Ff1TV1eb6urq7h4SAABApwQDAAD22sABA9PQ2Jg3Ktdm+2kFTi9op6GhPjUN9ampeSsV/Qdk4ICBqdpQ1d3DAgAA6JB7GAAAsFcqKirS0NiY6o0b2kSCIo9OH81/VG/ckIbGxlRUVOz9mw4AAPAe6JHBYMz4CZk0fnS76SNOGp9JE8dlTDeMCQCA5nsWFAp9Ul3dGguaD4oXJSkq8tjpkdZc0PK3oqS6ekMKhT4pKRS67TMEAADoTI+8JNH5V1yXc4c8myPO/nLu2D71xHzhy1/LhGGrcv/8JbmxG8cHAPCfVd+ysmzetLnlWdGOZuB6RO1tP7mgKc3/FSVpyuZNm9O3rCzVboIMAAD0MD3yDIOkPnU5Kqd8vs2kiZNzQnlNarptTAAAFEr6ZGvtlogFe6Oo9b8kRdlauyWFkj7dPCYAAID2euQZBklJVq5ZlVEnfS4j8r2sSXLumUcmlW8k5SXblzr/f92ZGYMez4Tp30uSjLjoH3PHJcOy/AfTct3cczLrnmkZ/MfJufTWjpbfdf7QTPnmrFx5yIuZffHM3JfP5UcPnpXypbfngr+f1/KKF2b2z6dk+HN35oK/eyAZOSFXXnlRzv/woSkvJKlZlXnfnZ6Zv25ZfPLM/PzyEzN4+4irsuQH03Ld3PZj32F3404yflpmf2Fixg4rTxprsnLxLzLz73+aFWnej/Ovn5krT2seU83aJbnryzMzZ/XOr7LzNifnhnsuyYQ8nhkX35ClXW6/Zd2TBu7YWPWylvcsScv7NqrNa62c37IvX7otCz9ctWPZ8Vfnnq+enroFzfOvvX1uTlnf8t5m1+dd7dfQTPrSdZkx8dgMKktSvSr33/FgBl0yLeN2vURwy1iz0z7U5u1Xl+RHt87KfcuTZFxm3DI9535gaMp7JzWvLsq/3HhDfrw87Yw483OZeeVZOX5wSfN7Nf+Hufib87aP/9zD2iz86kM7vqvnXZdZl30koypKki0b8tT8OzPz1oVZ0+793XVsu3yGe7Bcjr4wN1z/yUw4rDxprM+aJ+bmxq/8JEu73M/P5UcPfijrWr6vYz9/c26cfFRW3jM5V9z1ufzowb/KmgffzpizT8yIsp0/jzGTr851nxqfMUPKU0h91v95bmZe+5Msza7fgV2+6+2+H22+h3U1WfHgrFw6e0l2/29k57En43L9ndflrLqFezgfgK70Ki5OQ0N9dhwBFwv2TFFS1HymQUNDfXoV99AfwwEAgP/UeugZBknhpWVZOeKvMmVkkkzKaUcly//89s7LlPVLoazl+q8jJ+f6T52YQWX90qd3kpSkT3lJ2l4edqfld5k/4qKrc/FJA1IoL0nzpEIKhZKMGDsxn2lZY8SMj+aEipIcXNYSLVa/L4f3fzF3XT8t48+4OnNWD8ukv7kuY7e/YEkObnwh99367dxw6+NZt31su46lrd2Ne3Jmf3lyjq6an5lTz8kFNy1JPnxJbviHcUmSsdfMzIzTkkU3N4/pX9Ydkyv/7wvbv79ttjn26+dkfOPvc8s//WuW7mb7revWvfxAbrj127nhj1Vt3rMkI8tTXlaVRbd+Ozfc+kBWNLbZl0JJm2XH5forTs+oNvtaKGvz3u7yvKv9GnvNzHztvEOz8udfzwVnTMvM+Uuy8snHM+eOb+eGW7+d+16uTaHq8ebx3jE3i1v3/81HMuHsyZlwzQ+ztHxCZlzVvL0p37wuU0ZX5f6bpmX81FlZlA/lyn/4Wk7Z9U0cd3VmffmcjFo1NzOmnpMLbpqfxa8sa5k5NAeVl2TdH9uMofUzHHd1Zn3+Iyk8eWcuPeOcXPqvr2bUeV/MzMuG7vhsOhlbu89wt8tNzuybLsn4LMmN08/J+C/MyeIXn8nS3e5nIYXt39cLc+XZh2blv96cO+a1zhudcWM3ZM4152T89J9kedm47Z/HQUcMTe3iH+aKiefkgpseT+1Jk3Pl1I6+A7t813ea1/I9fP0XufSMc3LBzUtSfvb0zBzXwXrZ9d9I27Enp3xlWs46onwv5gPQldbfki9q82x/Gnn+9Nx6+4+y+A+P5Fd/v8u8qTflod89kqW/eyRP/e6efHfq8P0+nnemaJf3DwAAoGfpscEgjXPz5JpDM/ZvhiYXnJYP5MXMe72zhYdmyjUX5ehXlmXNvrzWyMm5/tNHZuWfK3ee3rsya6qOyukzhiY5MVd8+H1Zt7btRZF+mq9dPStznqjMmPGHZfnaqqRiwI6bMh8+MOVVqzJ7/sLMm1+Tdlep7V2eSRMnZNLE8Rk7cg/Hetn4nFCxKo/ceGfmrU7WPDwrtyyuzIi/npzzc2LOH3do1i3+XmY+XJnkpfz40RdTN+rETOl0g5Nz6ckDs2LerNy36KXdbL/ZqEHlWffqnZk3f2Hmbdllr04ZkINr1ubJ+Qszb35Vajt51VO+Mi2n934mK9q+nY2djbGr/WqeV/fEvZlx17KsSWXmfffOzFldmaW/XZh58xdmXW2Sxprm8f62g+9ITfM+vL15Y5JLcvpx5Vm5eFZmP1yZrF6Ymf/0eNYM+0AunrzzamPPPjGj6pblrmt/kqWrkzUP35nZ97Z+h8ZnUEVNXn+6zRh2Wu+Z3Pf3D2RFkhV3fz33PZMc/9GL2u/6TmPrQmfLtXyeD319Vu5fnmT5T3PLHUv2bj+/cnrGVC3JHXcuytLtZ6rUZPm/t5zNsPynufGPlSm0fM+WfuvrmTF7XlaMPDFjelWmqqYk5Xt7/Oay8Tmh8Gzuu7b5zJY1D8/K0rVDM+aMvdzO+Ksz46OFPLm8k4uZ7W4+AN3ukL6F1L6xNm+2+6Hiv+ebl5+cPPzVjP3o6Zn+u+TUv/liPtkdg9wbSgEAANCD9eBzoStzyxOrsvCUqbly6JF568kbMy8X5rpdF2tsPjvgstEv5q4vVObcu4/cafaojz+QRR9vM+HVXdZvaIkNL92bSysn5efvbzuzLk/9cVUmfHhqxk4sz9iBq7L0uUMzfvv80Tn/+i/nytOGJVVrs7Ju599QPn/wgNTVdHGgd+CxufTThyZlAzJqyPQs/cF1mXHvbsY9pDyFmqqsbHOJoaVb6pKKgRmT0TmoPBlxyswsfLDNutXL2seKJDlsUhYtSFL3UuYs2JPtJ8k5GVFRn5o3O9mnwwamvGbV9ssXtdOY1LUcpF1005IM+uqJGdQya97Tq3LWOZfk/h9NytuNyUFDkqxP0uV+Nc9bVzm3s1fs3MjTs/DB05t/s73m2cyZvyzJMSkvq8n6l9rEoyU1qUt5Bh2x8+pjDu6XVFVmTocbPzSDyjdl5cr2czpa763a2mTk0O1RpuOx7ek+tNHB59ms/x7sZ3nGfv6BjE2y/nf3Nl9SqBNrGuuSsoEZkWTEmdNy/bSJOaG8PmtWb0ihdzr+/nVlSHkKZYdmyoNz28Su+qxss6Hd/ttuHJfrrxifwuJZWTT4uowt28v5AHTtPTrw/djd385juTB3PnJyhrSdMfWkjO7zQu77h8eSJP/x1T/lpcdPy9kXJr/46XszNgAAgL80PfcMgyT57u+yomJczh+9KU892PEB05qNyfWfPjLL//W2dtfpT5KVvz4n489ofsx+YtffIq7J+uKW2PCtuR2enVA7+3dZUXFsLv34kcmT87PT5eE//6Vc+9H63P/FyZl08fRc8czO2x/ct0/qNld1vn9vPp6Lp03PxRd/Oj9eXp6xHztn9+OuqU/KDmpzX4RkRO9CUlOVldmQ2rpkzeKZzZepaX1sv7/ALl6dl/FnzMy8N0fn3GsmZ8Rut58kA9OnUJvaTjrI2IMKyZaazg8uV2/KmGnjU1h8e2Yu2nnW0m9NzxV/NycLl7+YFS+8mNe3tM7par+a5x108ITOXrFzq1su5zNxWmY+OTBTpk/PpGxKXWN5Dnpfm+VGFlJITdbvckB6/Zb6pHxgJnW07XHlKaQuby9pP6vT9aord3xOHY5tT/ehjQ4+z2Z7sp81Wfrdc3LBHcvS55SpmTm+3Ua2G1vW+h2ZkGumT87wF76Xi8+bmounP5LXOz1zpAs19cmWZzOn7ed99o57FiS7+7e9IW8fMS2n916SW27s4EPY7XwAerwjBuWgt9/Kjh//Xs2bNeUZckw3jgkAAOAA17ODQX6a36/sk/LqZfnnTo7plR93eo5+6d7ceG9lxwt0qTwnnNF5bGgdw/3PFDL2pLos/fm8neZMGjEg2bQ2S5Ynyeh85pABbefm/cNKsmblA7sfxsgJOXxgSWre6iIutPrlsqxoHJ3Trp/QfIB/5ORc/+GhqXl+SeZkYX773IaMGPvf85mjW7d9YsYe3cX2siQzb1+Utz5wUa6/aOhutp/k46MzvPBGVnT4C/1DM+GQoVn/+p87f7lhH8rphc4P0q5Y9NPccuOszLxxVl7efgy4q/1qnjfopE/m2pYD2iPOnJzzuzi43V5l3m5M0rskB+WBLF1ZnzGnXJdJI5v3aco14zKi5sUs+vnOa8373YtZP/DEXDyj5f4OIydkyuTmv484ZVhGVFV2GE6a1zsmF0wd3Txh/NU597jyrHzmt7sZ257uQxstn+ekm85p/jwzOudfdE5G7MV+rrn3tty3fGAmXHF1m/s49MlB72sZ/8jJufSvh6bmpSW5L0dmcEV9alY/mzVJRpx5ZIbvy2/u/3JZVvQ+NhNbv4dJxpx04va/796wjJ9QyKLbZ2XxPs0H4ICw8fVOzvQDAABgX/TgSxI1+/HVk/PjrhZofCH3dXJ2wB554d92Gxvu//kvMubl+sxZkpzW5mYA8/7t8Vw6blJu+fXc1DXWZs1zb6T5GPcl+ecHL8zxdcsy+5ddbPiwSVm0oPn3wWvWLsv9981NMrmLFZKsvjNfu+vQ3HbZdfn5aV9MXe+SZPWizP5W8xH8+//u2xlz+3W58p/m5rK6JL2TdYvvzAXf6CJcLLohP37s7lz/6asz5Xdf73z7l92chVOPTd0Td3ZwxsKJueGef8yEgaty/10LO3+tQlWW7MNB2q72q3Xe+d+Ym3PrkkKhNk/9/Nnct+i5rjfaejmf3knqqrL0wbm5L5XJzJ/k8JsvycwffSRfayxJoXFVFt5xW/sDEr+emRvef1u+cd7MLPx4fVIoSd3yuan/wPRcc9rArPz1TzKvg5fdvt4lt2Xhp5vXe/vZubnhm23OoulwbHu6D21s/758Lj//9bTUpSSpWpTc+0Bm7+l+pjJ33PhATrnznMz4yqIs/mbz1BFn3JCF5/VJepcka1u/g0Pz0BMTMuOC72XheUld9TNZ+WZS3nZz5SdmxoIHMqP1+U6XFjo0M371j8l5u3wPG9P8b/1ryzL7qY7eiF2VZN3S9mex7Pl8AA4I/YdnSiIaAAAAvEuK+lUMb9rXlQtlB3cxtyljjj0ua9fu86H8A8TonDJxWOqeaXtD2KEZe9qRyQttp73bhmbsacfmoLeezcInOggeR4/LpMMKWf/Mvo6hg+2PPDETjkpWdHTj4CRjxk/IoPULs3h5BzPfLV3t19HjMumwZOX8JZ3fQ2EvjDhpfI4/eFOe6mR/dxidUyYelrzasu9Hj8ukQVWZt+il3bzCLuvtV51/X/Z8P1tdnXsWjM/67346N744PseXrW23ryNO6nj6bn3l9iz6aFVmn/f1loM/zeMeVP/q3m8LgP1i2LARef311SkqSt67O/hemDsfmZ4hj5ye8/6flklTb8niy/tkzmlfyG1Jkuvyq8dPy5s3n5tpPfoeBk1pakqGDx+51z8nDxs2IiuefTpdve91W956R6PbHz/fd893BgAA3gs9++f7fdHjzzDo+V7K4vm7HsiszNLf7sslkvbGbl5j+ZLMe0cHoTvY/uplWdhFfFixqIszC94tXe3XO97nna15YtEeHkDf5TuwfEnHZxbsbr39qvPvy57v556v+062mbr65ntdJ3lv/i0BcEC6+4m8dPm0nP2Nk3PbPzyW//qND2b0+qfzox4dCwAAAHo2wQDYS3Wp27IptftyM+Pd+fPizFu/dg+DCwDdYZ9PTd0nzWcWnNx6bbtzH8lT59bksf99bqbd8//mKz84Kf9y1U1ZOqEuffrU5LHvfDu/eE/Ht+/e2/cRAABgzwgGwF76Xi49+3v7Z9O//klm7p8tA/Au2dbQkJLikjQ01r8Hr/bTTDu981MGVt99bSY88sF87AP98vaf/yOPvfYeDOldUFJckm0NDd09DAAAgHYEAwAA9lhdfW1KS0tTU1PfMy5H/9qf8psDJBQkSZqS0tLS1NXXdvdIAAAA2unV3QMAAODAsXnLlpT17dvdwziglfXtm81btnT3MAAAANoRDAAA2GP1dXWpq6vNwRUD4kr8e6spB1cMSF1dberr6rp7MAAAAO0IBgAA7JXq6uoU9+6Vgw8WDfZcUw4+eECKe/dKdXV1dw8GAACgQ4IBAAB7rWpDVYqKmjJkyNCU9zsoxcUl3T2kHqm4uCTl/Q7KkCFDU1TUlKoNVd09JAAAgE656TEAAPukuro6JYVC+paVZUDZgPQqLu4R90HuKZqSbGtoSF19bTZWb3QZIgAAoMcTDAAA2Gf1dXWpdiAcAADgL8JfaDDondKRx+TYI0dm5CENeeqeBVnZ3UMCAAAAAIAerAcGgw9m8rWn5qjWpw2b8uzvf5YHlmzcs9WLj8zEKydnXEl1XntjfV57bmle219DfQ8VVxyeUR8amw/1eipz5q3YMeP9Z2TqpA9kWCrzyP/30yxZ3fguvmi/lB95XP7rXx+StQt/kScqW2f0z/Gf/FQmHlGajc8/mp/9allqupwOAAAAAEBP1wODQZ+U91mf39xwd55IkiFn5LJpk/Nflt+VP7y9+7VHnfffcsyqubnxVy/u74G+pw45eXw+NGpojqp9fcfE4g/mU2cfnmf/ZXbuLpyZz376wtR8e06ea3iXXnTQcZkw9rgccUh50nfH5MGTPp3TsyCzb3kjR02ZmqmT1ub2eZWdTgcAAAAAoOfrgcFgF29W5s36I1uefDCTrz0yz9/yszy1fYHDc/pnJyXzv59HVh6ZYw/dmid+PSifuOjD6V9fmf94ZEFe25AkvTP4oxfmUycPTXkas+7Jf8td817M4I9/NhMLr6X0iKMzuKQ4W1ctyF33/ik1SY6/6Et5/4u3Zu6SJANOyZRLjs/aX34/b578pXzikLaD3JQl930/j7w2MuMuPDenDy9NGqqz5N9+kkeeb/sb/81jmPJfRqY0Sc2qBbn73j9l1EWdbK/NdZRWzpuTleOn5n++v81iHzwux1Q9nZ+92Zjk4TxR9T9ywgeS5/7UZpmDTsmUK07O9s2/9mhuvvdPnY5lpzMCKv+YB+6pzCe+eF6biYfnpKNL8tz9K9KQ5LklK/OJj52Y/lneyfR52cNzQwAAAAAA6EY9NBgMyriLp+SYJKVDRqZ0+dw88HbSfPZBaUp2Wbq0b2lSlCTvy+B+g3LU2LLMfXhBcsJ/y5TPfDI/+6dfZOUHLsxlx1bm+9+ek40NQ3P6VZNz+rIX82yhNKMGbc7t37k1GzMyE6+cmsnjl+XuRY0pKS1NeSFJ+uek88blkOJkY1Hy1L235qkkJ33mqzn++Zty96Ik6Z1jpnwqJ7xxd26+Z30y/BOZ/n+dmSeeb3PA/IMX5rKxtfnZ7FlZWds/4y67PFMnrc7tHW5v9wa/r382bmz9Df7GvLa+Nh8aPDRJm9/qHzw4g9c9lpt/vDgZPzX/8/19uh7Lbs8IGJrBB23Mc60x4/l1WTd5VIZ1Oj2CAQAAAADAAaBXdw+gY9V59uEF+feHF+U/nngpDUdPzMT3926Z1xwTplz8yYwbVdp+1U1PZ+49v81rlZV57TcL8n8aD8vxRyejjhiamrcac9T40zLu1GOSzaU5pOXEhZr1K7OxIUnD6jy5alP6D97p1/1TPv7cjNu4JE91eamfY3LUiK3Z2HB8xp16Wsa9P6npOzRHtFli1BFDs/XFpVlZmyQbs2TZ6vQ//Lh0sBd7pLiDT6+4sMvWhvdPeV1tu+X2fSy921em4uIUdzodAAAAAIADQQ8NBg3ZVFmZjZWv5IVHf5E5yxpzzLGtB/HXZ8k9P83cx7bkpE9/KiftdES6MQ39+mfI9ufr8vbW4pT1SUoLOx+6fvvFJ7L45d2PY2tOyeSxmzL/wTW7WbZPynq3fb45zz7+p7R9idJCcRrqtu6YUFubhuLifQ4Ga6tqUlpSvv354P79srHqlZ2W6V/eLzVvr2+37r6P5Y2s21SaPge1PB3VP/03bcy6TqcDAAAAAHAg6KHBoI3iQTnm0Io0bG1zcDuN2frKmqyr75f+g9ou/HRerhya4z/av/npgJNz7KD1WfV8svL19Rl8cO889+hvs+TR32bJot/lhZb7BxcXtcSE4iNz0hF9snbNay3ba8iwsSdmw4JfZuVubyS8PKvW90//Xsuat//ob7Nk0XM7XY5n5evrM/jw49J8iL93Rh1zWBoqV+77JXueX52aQ4/OqOIkxcdl1IDKPP9k2wV654jhJXn5hVfarbrvY3kxL79RkWM/1Pwel48+JMWrlmdtp9MBAAAAADgQ9NArxozMx6/9Uj6W5oP5G1c9mjkLKpOM3jGvKFn35/sztzL5xPb1NuUPv/h9jvjbyzPj6PXJgIqse/RH+cPbSRbOzdyhUzPj2iPzWlUyuHxj/v3On2VjktIjJmbG9DOytW9FSl9bkLuWtN6ouDTFa+bngacb242wvU35wy/mZfgll+d/HLU+61Ke/ht+n9t/9qe0toatbcawrq4i5Vv/nJ/dtWIPtv3BTL721BxVVJoUD82Xrz05L/z21sxd8nDuf+GzmXrVZVmbQSl9sfVeD80Gf/yzOWdkvzSc/aUce3aSlvU/+/E1+f6vdz+WwR//bC47riLFfYqT87+U46ufyV3fn5fnfv37nPS3l2b6EVtT2n9TFv6web3OpgMAAAAA0PMV9asY3rSvKxfKDu5iblPGHHtc1q7d3aV89ofeKR3cP9m4Plt3PTOgT//0L92ajdXNZywMO29GPpVfZfZD1Skvfjs1m/YkDnStuGJoSrdWpqb9rQO2j+Hdeq0kSb9BKW9Y3/71PnpZZgxckNm/2nGGwbDzZuRT236V2Q+88g7HUprywb1Ts27THk4HAOCdGDZsRFY8+3SSok6Xqdvy1jt6jf3x8/2wYSPy+uurU1SUdDV2AAA48DSlqSkZPnzkPv2cvL9/vt8XPfQMg3eqMVvXtb9uf5KkdmM2dnQgv3Zj5wf491JDdWVqulrgXXytJMmm9R2/3raOr6O0030O9nksW1PT4Q0KOpsOAAAAAEBP9hcaDPbcxqcfyyN/qbfmXXR3Zu8yae2vZufubhkMAAAAAAA92X/6YLD1xT/mqe4eBAAAAAAAdLNe3T0AAAAAAACg+wkGAAAAAACAYAAAAAAAAAgGAAAAAABABAMAAAAAACCCAQAAAAAAEMEAAAAAAACIYAAAAAAAAEQwAAAAAAAAIhgAAAAAAAARDAAAAAAAgCTF3T2APXXWx07NWWecmqNGH55+/fomSTZt2pwXXnolDy14NA/95tFuHiEAAAAAABy4enwwOOtjp+aqy6emrKwsgwcPSklJSXr1aj4xYtu2bTn00ENywnHH5KrLp+Y7P7hbOAAAAAAAgH3Qo4PBdVdfkTMnfCQjhg9LSUlJioqKkmSnP3v37p2RI0ekvr4+X/r8tJzwV8dk1m3/3J3DBgAAAACAA06PDQbXXX1Fzjrz1IwcOSJFRUU7PdpqampKU1NTCoVCDj/s0Jx15qlJIhoAAAAAAMBe6JE3PT7rY6fmzAkfySGHjEyvXr326nHIISNz5oSP5KyPndrduwEAAAAAAAeMHhkMrrp8akaOGJ6ioqK9DgZFRUUZOWJ4rrp8anfvBgAAAAAAHDB6XDA462OnpqysLIVCYXsAaBsDOnq0nd+rV68UCoWUlZU5ywAAAAAAAPZQzwsGZ5yaIUMG7xQDOgsFHYWD1r8PGTI4Z50hGAAAAAAAwJ7ocTc9PvaYo1IoFDq80fGuNzxundbU1LTTMkVFRSkUCvngX5+QRQseeE/HDwAAXdm48a18544f5sGHftPdQwEAANhJjzvDoE+hkN69e+8UCpKOY0FH81rX6927d7Zta9yvYwUAgL3Vv//BuerKv+3uYQAAALTT484wSNLh5Yb2ZJ1d1wcAAAAAAPZMjzvDoLauLtu2bXvH29m2bVt69er9LowIAADePa2XJAIAAOhpetwZBs8+90KGDxuW8vLyd7SdrVu35k//58lc87X/9S6NDAAAAAAA/nL1uDMMHlrwaN5ct/4db+fNdevz0IJH34URAQAAAADAX76eFwx+82i2bN6crVu3pqmpaftjd9ouu3Xr1mzZvDn+klc1AAAgAElEQVQP/UYwAAAAAACAPdHjgkGSfOcHd2fVa6t3CgVdRYNdl1v12up85wd379cxAgAAAADAX5Iedw+DpPksgxP+6pgUFxdn9BGjkiRFRUVpampKUVHRTsu2xoLWswteXvlKHl74e2cXAAAAAADAXuiRwSBJZt32z0mSMyc05LBDD0lZWVmHy7UGgy1btuTVVa/l4YW/374uAAAAAACwZ3psMEiao8GTzzyXqy6fmrK+fTP0fUNSWlqa4uLmYTc0NGTr1q2pfOPNbNm8Od/5wd3OLAAAAAAAgH3Qo4NB0nx5ood+82jO+tipOeuMU3PU6MPTr1/fJMmmTZvzwkuv5KEFjwoFAAAAAADwDvT4YNCqNRwAAAAAAADvvl7dPQAAAAAAAKD7CQYAAAAAAIBgAAAAAAAACAYAAAAAAEAEAwAAAAAAIIIBAAAAAACQpHh/v8CwYSP290sAAAAAAADv0H4PBmvXrtnfLwEAAH/x/CIOAACwv7kkEQAAAAAAIBgAAAAAAACCAQAAAAAAEMEAAAAAAACIYAAAAAAAAEQwAAAAAAAAIhgAAAAAAAARDAAAAAAAgAgGAAAAAABAkuLuHgAAAAeukkIhfcvKUijpk17FxSnq7gH1IE1JtjU0pK6+Npu3bEl9XV13DwkAAKBLggEAAPukoqIihUKfbN60OTU169NQX9/dQ+pxiktKUtqnLP0r+qeurjbV1dXdPSQAAIBOCQYAAOy1gQMGpqGxMW9Urs320wqcXtBOQ0N9ahrqU1PzVir6D8jAAQNTtaGqu4cFAADQIfcwAABgr1RUVKShsTHVGze0iQRFHp0+mv+o3rghDY2Nqaio2Ps3HQAA4D3QI4PBmPETMmn86HbTR5w0PpMmjsuYbhgTAADN9ywoFPqkuro1FjQfFC9KUlTksdMjrbmg5W9FSXX1hhQKfVJSKHTbZwgAANCZHnlJovOvuC7nDnk2R5z95dyxfeqJ+cKXv5YJw1bl/vlLcmM3jg8A4D+rvmVl2bxpc8uzoh3NwPWI2tt+ckFTmv8rStKUzZs2p2/Z/8/evcdXUd174/9MsrNz20AggQSCgNwEQSyCWqIiokBbob+miIoWi8Vq0UI9Bfs6yjmWp0+9HAvnUam11nq0pZV6pS1oCygiWrQKclCUuwa5RkhIICHJzmV+f+w9e9asWXPZtyTYz/slrszsmVnftWbNys7Mmplc1PIlyERERERE1Ml0yjsMgGaEMRjjbhdmTSrHeaE61HVYTEREREQUzMpGY1MDeLEgHprxHwANjU0NCGZld3BMREREREREdp3yDgMgCxWHD2DA6B+gD36NwwCmXTkIqPwCCGXFlhpaPh8LZ5RhaM8QgmhG1YcrsXjB77EFwPSfP4V5he9jwtxfAyjH/c/ehAl4H/NuuB9bzrkW99/9bUzoFwJam3F460o88JPfY4BlHaDPdffhiZtKsOu3c7BwZXSbo6rx0ty7sOxQJIYxdz+OpZc2Y9XV87EUAzH9x3Mxc8Jg9AllAeET2PLcEsx7elss5gWPr8S0fkJRP18Tye/OR7Hhomosu2ExXpKrw/bZD/DMKxfieDQuYCzmLZ2LaaOKEcoE6j7fhD8+cD9+tyu6ftkcLPvhJIwpCQHhOux+ZQlmL9ssZWLd5pjbf4EHygej4tly3Pp0MabfvRi3XX4WQkEgfHwHVj2xBEtfrxTWnYIBwtYq1pVj9sORn6f//CnMG93D/LB2W7QsU7Hk2Tkoes9YthgzH1qC2/rui3wul1uediuXah8fHoulk86ytbaKdeWYjUexQfgsfGwbVi1/HMuiZezzzYVYcvMlGNAtC2g4ge3rnsLihzfgsLwxh7a1BQDKF+PFW85HUWzhamw29qFYltY6VLzzMhbf+zx2q+o3fBSb1z2H//6VlP+d7mUwFWPynQsxb9JwFOYCqD2AVU/MxQN/d9/PbsfUgJ8/hZnB97G9cAImny3tj9IJuO226zD9osh2UXcAa381F4v/bpTNbHfWPFzaOZpRt3cNfjr313jHFptR1z3wztXzsVTxufXY9miHthZDRPSvLSMQQEtLM8wz4LxY4I8GaJE7DVpampER6KRfw4mIiIiI6F9aJ73DAAh+ug0Vfc7FzFIAmIzLBwO7PjxlWabL2cVoeud/cOukqbjmwffRNLoct82Krp+bj2Bu5NmwYxZNRVnrP7D0l3/CFpRj2YM3oQyb8cDcqSj74Qq8s+8TbJHWQWk57p5xPgpz85GdKW5zOC6ffX40gsmYOeYsBINZiKzVBUNLwnjnVwtQNnEOFr8XxphrvoPvxiIuRpdQFo6/9wjuf/gRvPRZk5lfMAvBkLEduTLkz4IICnHNfGghZg6sxqoH56Bs1hJswoW47af3YBwAoBzL7irHOUdexuyJU3HNLzYjdPVcLB5ry0TY5rW47eqzUPGnX+CJtcCYHy/GvMuD2PzEfJRNnI+nD5yF6T9eiNtKo6uWhhDKrcamhx/B/Q+vxu7WLIiP5Q3m5iP82Wrc//AjuP+9aqEsWcgOmcv2uW4+bhjd3fxcLrdl2q1cDvv4b7+PxPDw+zie24Tdf43shyf+Ft126yd44upyTLh1MV46OQwzZ8/CGAAYOx9Lbr8EwY+ewuyJUzH7T59jwDd/hMU3F0t16Ny2jPi7tu7FS7EYjPqOlqV6HRbPmoprHtwMXHQT7v+psZOCCOY24aOnyzHh6h9gwV/rMOqaWbhV3oduZRCM+fFi3PPNs1Dx4iJcM3EOFq/bjIqPvPez8zEV+azPqEtQuOXXkW2+eQIDyqP741Av9C/Yh6fvnoOyifOx4lAJJt+4MBqXtS1bjkFlOz+KP/5wKspmP4JNoSlYsOh8xXoAMrPQNddsO+7Htkc7JCIiC2OUvCZMpdbFuPWeB/HC39dg+xtLMVv4ZPgtD2LN229g+9trsP3dN7Dhl9eiVFhv0e9WYfu7a7Dl3Tfwzu9+hMvSEF1yNKn+iIiIiIiIOpdOe8EArSvx0eGzMObGYuCayzEK+7D2iHWRLf+9CPOWrcXu0vMxNKMS1XVZCPWWN1SO2Rf3wO61S/DSpk+Bm8twXrcDWLNoCVbtArDreSx9Qh5tX4yZP74O5+zfZhtBXne0EkWjyzENAGZNwqiGShzOND7dhgd+sghL//4p+oweBByqRl1uCH1ia5ehsFsdjny8AWvXbcDxJjnWIIomTcDkSRMw7hy/FXUTrhgRQsU7SyIjyQ9twOJfvo/DJaNwQzki5Q3uwEsLIqPVD7++BFuOFmPoROctjvnJFRhavRlPPLUJWw6dj+ljz0L449W4Z+WnAD7F7xa8iu0Yjsuvi64wrju61h3FR+s2YO26asjFGlAYwvHPn8LadRuwtsHhWb2l5bj7+kGo+FAYDd/iUmy3cjnt412bIzGsq0MYQFNVZD+8s0va9qFTaASAxjocATDm6vMxIPwJXrp3NXYD2L18EV76BBh56XXW9bzaVv8eCFUfwDIhBnG9Nx54CmsPRcqy9J1K9PlKOabbCl6JUy0AWutx6ojtQ8cymKL7c+tzmPf0NhxGJdb+6ims8LOfY6RjynD0fcz71YbINh9Yi4/qjHb2PO6ZvwQrtlZiaFk/7DpaDXTrHufLy2/CFSOysf2viyJ3zhzagMUfHUWfIZfHtRW3YxuAuh0SEVE7K0JO9il8elh+EOW3cNuUEux49PsYeekUTPnpa2gaOwcP3RL59OKf/wgz++3GkmumYMw1f8CnA76F+XfZvhh2PF4pICIiIiKiTqwT3wtdiaVbD2DDuFm4rXgQTn70ANbiWiwUluhz5RzcPWcSzgs14/ChEwhmApbT0f0mY9N6AOFPsWJ9dF7PEIJ11ag45JBta2SE8c0D9+HpH1Zi2vJB1s+/eB+b+0/BtFnAgPGDcXLn+wiXGo+BKcbk2+fj1q+di66NR3G4NoigJaKzUBiqR0WFQ965Z+Hy66/DuMwQ+pT+CIfX3YcbHoqecA6dj3nrV2NebOE6VAEAChDKrUPVp8IJzs11CCOEwrMBBEII5p6Fma+sxMzYAs2oUJ63D2HM7asxBkDV289FR8YPRJcQcLxypbDcKTS1AgNKpgJYDfTrgVDdgejjc2RT0adbM+qOOZQZAFqiJ3E/fQ6zKyfjxSHR+Rt3oGLyZNz24uOYVgugSwmA6shnPV3K5bWPnYTOx22vrMRtmVkIohIbnl6LwwAu75oPVFdihbDoyaYmoLQY0wHzkTUe+U4v6o5wXY39A8V6WxrCQLcewkn1EMbcshIbbgaCucDht3+PVap8HMpgUu1Pp/nSfgbUx5SLLj0mA9iL6XffhdsuLwGqj6IinMi4/QKEcrMw4LqV2HCNOTf8ufm4r0hsk4V1Dlg34XVsO7VDIiJSS9uJ71fw6E9fAe59BlefLc7/M+6c8efY1KE1r2HH/KswsA8A9Ma3z+2N4x/8D545CABPYfVH38KiMTcCWJKuQImIiIiIiL50Ou8dBgDwq7exu9tYTB9Yj+2vbJM+nIAfzy1H772/xg3fnIUb5r6BI63SIp+vRdnExVh7bCCm/bg8MtK/rhnI7SI8R96qrga4+/pB2PWnR7FCeeK3Eiu2VmPAxfdhTJ8DeOcZYfTbpLmYd00Jdj/yA0y+di5mrzlqvYAxNoQgwjgl39BgaNiHl+bMxQ2zZ2HB29UYcNFUxE5/1m3DsolTUTZxKsomroV5zaEe4dYQuvQStlMaRBB1qPo8Wt6GHVhxdTkmCP+M9wtIpceWX03FNU9sQ/a4WVhcBgAn0BQGunSdYFv6+PHISeQxXYJAQ5356B2LHsgONqFJcZ7cyLMqED2J+98rrSe3Nz+KG360GE+/uQ+79+7D7i+EunYrl8c+dlS3LfI4n69NxeyV9Si75U7MA1DV0AyEemCyvHxtpfX59h75FuVlI3y6WpGvfb0+mUGgrlrYz3XY8ttIGcvmrkbdmDm453b7ppzKYHLan977GYD6mFLqguxM4NQXa4Hb78SCS5ux6kflmHzDXNz6SSKvLq9HuLUZ25+z7u/YOwtisUWPkV9ts70g3f3YdmmHRETUOfX9KkoLwzh1GAAuQ1F34GTVa7GPV3xRBRT3tjzSiIiIiIiIiNx17gsGeB7/qMhGqHYbfmM7yT4IRd2aUXdoBw4D6HPlIPTOVW1jMxY/vgknR12Hu68rBv6yDbtbB2Lyg1OjJzsHYvp1U2MnPkMjrsA5nz6HB55zfiTJlmfex+FzzseAfW9jqXjicUgPFDbU48jOSgDFmDykBCHh4z7jStCnutLhxLpoIMpKegB11djuuexqbKloxtBxCzG5FIg8cmUs+tTtw6YXESlv5nBMuntCrIxDR5/vcqIXOPzco3hpVw9MuHU+xmED3tx5AoWjrsZ3o49JGveTyTgv9wA+Wh/Jb0LfYlQd+VC9sa8NRO/gF9gtD2iPCeG8iS4XaHZtxu+WLcHiB5Zg8efCKWC3cnnsYz/qwk1AZhZCANa+vQ9VPYbhmlkDIx+Wzce0ESFUfPKmdSXXfCdjSEkWDleshk10vcuNspSW4+6LilG3Z7PlrgYzuGaEAQRz/JfBFN2fo7+NBWWROX2uLMf0Mq/9LJKOKUNeKNoGgXE/GYehwQP4aCMwuU93oP4oNu+K1Ml3+3Z3D1xpNbZUACMnLozlgXPOx5hS15Us3I9tj3ZIRESdTG/MXnQVhtdsxUu/NebV4ZjTXZxERERERETkSyd+JFHE7+aX43fKT1ZjzdYJmHfNr7Hhm0C49hNUHIN0cjRq0/343T+X4+7r52Pm24twz9Nn4dGbf4AX/z4HYWQB1ZuA56Inclv34iWvEcaHfo2X/hREjx3PA5hvzv/LG9gycQ5mPrUS01ubcHznARyORjTmp09h2eU9UPH332Ot03aFxw6Faw9g7dPP+RjpXIlli3+P/r+4CYufuQT3tGYh2HoAG554NHKy+dBT0fIuxIuX/wjh1mgZ79mGZY5XIyrxxAOrMe6pqZj3k0244T8ewdDHF+K2X67EzWEgGKzD9hcfwQObz8f9z96HCT0OYNXTG+ybufkX2DBrOMJbn7KOxJftfdX1Ao2Sa7mectzHrnEYj/MBgMwmHF73h0jb+/ti3D/kUfyfmx7FhuubgWAWTu1Yifsfku56OeSUbw9MeeVajAxvw7K/+ChLZhZwaBOW/bd4lcV8JBEygfChDXjiuTjKIFgV3Z/T/89KTAsDwWATtr+4A7c67mdFPtIxBQDIGY55T63EPchCMPOEuW7wfcweOxlL/74S4dYmHN75hTT6P/IorE2xOyasjxYacPufsAzXY57YzsOR8u1euRi3PrFTEaCC17GdSDskIqIOcdldP8O886rw8j3/jpdjc0PoOaADgyIiIiIiIvoS0PK79dYTXTmY29XlUx1Dh4/A0aPpfbhHn9FlGJl7FGvFl6/6Uowxlw9Hl5M7sGFrKk8SRrYbPCq9TPecsZhcWJ1AnP71GV2GkV3rsf1N1QtdI3EVNn+eeAznjMXkfkDFus2x9xUMLZuAwirFi4MBoPR8TBgM7FbGkypu5Ur1Ph6IcZP6AZ87lNcx32KMuXwQsHcTtriOXk9Xm3Sg2J+u813MXPonzCvchLLZqzFuUgnCn8hlHegw38t8PLu+DFW/uh7zXozM6TO6DCOLwnHFR0REqVNS0gdHjhyCpgFpfYPvvc9g+xVVWHLFAjwjzC6dtRQv3jEUnzx2K+YsPxKd2xv/9fKz+MruBZjy7x8AAGb+chUWFb2Jkdd3tncY6NB1oHfv0ri/J5eU9MHuHR/Drd7DDSeTii4d3+/brc0QEREREbW7zv39PhGd/g4DL4e3bkrwZHQltryZjpOyDtvdtdn5zoIUca+LFJR312aslU6U796kuLPAcGgbNqT98S5u5Ur1Pv4U76zzc7FFztdvHOlqkw4U+9N1vi9OdeS37lSa0VRrTiV+zBMR0ZmudNZS/PGOkTj26r3CxQIAOIKXPzmCqy+5EbP7foBncC2uGhHCjlf/2GGxEhERERERnYnO+AsGRNTxwg31CDeEvReM2068ua4Gh9elYdNERJSQhG9N9eveZ7B9Wv/oRH8sfP8NLKx4BSNnNOPxOy5AUSZQNO1BbJ8WXaTug8hdCP/xCF7+08+w8E9rMC8QBCpewZ2/OOKUS4dLez0SEREREREl4Ix/JBERERERtZ+eRb1w4kQ1Wlqb0RkfLzN8/FUYiAq8snFvR4fiQEcgMwvdu/fAseNfxLUmH0lERERERNTZ8JFERERERPQvLNzchJycHNTVNXfKc787Nr6GHR0dhBsdyMnJQbi5qaMjISIiIiIissno6ACIiIiI6MxxuqEBuXl5HR3GGS03Lw+nGxo6OgwiIiIiIiIbXjAgIiIiIt+aw2GEw03o2q07+CT+eOno2q07wuEmNIfT8e4fIiIiIiKi5PCCARERERHFpba2FoHMDHTtyosG/uno2rU7ApkZqK2t7ehgiIiIiIiIlHjBgIiIiIjiVn2iGpqmo2fPYoTyuyAQyOrokDqlQCALofwu6NmzGJqmo/pEdUeHRERERERE5IgvPSYiIiKihNTW1iIrGERebi6653ZHRiDQGd+D3GF0AG0tLQg3N6GmtoaPISIiIiIiok6PFwyIiIiIKGHN4TBqeSKciIiIiIjoS+FL+kiiTOSUjsDo8ZMx9YaJGNDR4XwZDZuMmZOHdnQURERERERERERERJQinfAOgwtQvmA8BhuTLfXY8Y8XsHpzjb/VA4Mw6bZyjM2qxcEvqnBw5xYcTFeo7SjQrT8GXDgGF2Zsx4q1u6MzCzFs0jdwxbmFyDl1CG+98jI2H2qNfDZkImZNHoUSVOKNPz9vzk+VHsUY3PuUFKRTPMUY/e2JGJZjLFiFd55di4r2iJOIiIiIiIiIiIiIfOmEFwyyEcquwmv3L8dWAOg5ETfPKcdXdz2Nd095rQsM+OY3MOzASjzw133pDrRd9b24DBcOKMbgpiOxeaGyybgQ/8STS3cDo2Zg3oz/D8cffhkVgQsw4+r+2PHHZVgevBLfv/5a1D2yAjtb0hujYzwoQunZOTjwh1exHQDQhDoA6KA4iYiIiIiIiIiIiMiuE14wkByrxLHmQdGJC1C+YBD2LH0heuIZAPrjiu9PBtY9iTcqBmH4WY3Y+vdCfP26i1DQXIm33liPgycAIBNFl16LGRcXI4RWHP/oVTy9dh+KvvZ9TAoeRM7Z56AoK4DGA+vx9HMfoA7AyOvuxJB9D2PlZgDdx2HmTSNx9C9P4tjFd+LrfcUg67H5pSfxxsFSjL12Gq7onQO01GLzq7/HG3vEEfORGGZ+tRQ5AOoOrMfy5z7AgOsctldhzqlYuwIVZbPwn0PMeXUbV2C5MfHhQRyfOhjdAVRcMALDqj/GC8daAbyOrdX/hvNGATs/EOP4NsrHlKIgK4BA/cdY/uTfcLAFGHnd99H70EH0HTMCJbktOL55JZ58bT8AIDR2Bm6e2B+h1iYcPQWgybqrHONBV3TPbMTeykpY7hPxjJOIiIiIiIiIiIiI2ksnvWBQiLE3zMQwADk9S5GzayVWnwIidx/kIEtaOicvB9AAoBeK8gsxeEwuVr6+HjjvG5j53W/jhV++jIpR1+Lm4ZV48pEVqGkpxhV3lOOKbfuwI5iDAYWn8fhjD6MGpZh02yyUl23D8k2tyMrJQSgIAAUY/c2x6BsAajRg+3MPYzuA0d/9d4zc8yCWbwKATAybOQPnfbEcv3i2Cuj9dcz91pXYumeteZL8gmtx85gmvLBsCSqaCjD25lswa/IhPK7cXpyG9UZR7XEcAFDUqwA1NZXRD1pxsKoJFxYVAzDnNR78AC+8+wJqWjIx8oZ/w7SJH+DxtZXIyinEyH7b8PRjS1DT8+uYO6sMw17bj529J2PWVQXY+tT/w9vHgILJ38O83v7iiSjGFXfMw9dzmnH0n6uw4u1DPuIkIiIiIiIiIiIiovbSSS8Y1GLH6+uxHTkoOmcMrrhwEibtqsC6PYB5MaEJeza9is0V0qr1H2Pls29G3ltQuR7/O7wcI88BcHYx6k4exuCyyyPLnc5B30HADgB1VRWoaQGAQ/joQD2GFfUFsD+2yVDZNIyt2YztBWNdYh6GwX0aUXNkJMaOj8ypyyvG2UDk0UoABpxdjMZ9K1HRBAA12LztECaNGYEcVKIxmeoKDMLXJ/XDwX8sw3EAJYpXWQeCOZbpuopDKBh5Ea4YOgh9C4FAnfn58Yr3IvVxpAZ1gSLkAsgZ3h9Fh7fh7WOROyZq6lwiluIBtmLVH3ej5lAV0P0CzPjuDEw9/jA2+4iTiIiIiIiIiIiIiNqH4pRtZ9CC+spK1FTux96NL2PFtlYMG248s6cKm599Hiv/2YDR18/AaMslj1a05BegZ2z6OE41BpCbDeQErddGTu3binc+846jEeNQPqYe61457LFsNnIzxenT2PH+BxCzyAkG0BIWTrQ3NaElEEByp8gLMPrGaRi8fxVe+CByMv9odR1yskKxJYoK8lFTvd+6zne/jxkDW7Dj9ZVYt196tpBCTiATLc1+Xi5gjwdojFwsAIATH2DviRx07+EnTiIiIiIiIiIiIiJqL530goEgUIhhZ3VDS6M4or0VjfsP43hzPgoKxYU/xmeVxRh5aUFksvvFGF5YhQN7gIojVSjqmomdG9/E5o1vYvOmt7E3+v7ggBa9mBAYhNFnZ+Po4YPR7bWgZMz5OLH+L6jwPFe+CweqClCQsS2y/Y1vYvOmnZZn9lccqUJR/xGInCLPxIBh/dBSWWF9rn9cCjD6ptm4NLwRT4sved5zCHVnnYMBAQCBERjQvRJ7PhLXG46Rxcfx1l8/wNHaZoSyM+Gl5vMv0Fg8ILJNAKE81WUOh3iGjMCA7OjPgUEoKWjEiWo/cRIRERERERERERFRe+mkjyQqxdcW3ImrEDmZX3NgI1asrwQw0PxMA45/uAorK4Gvx9arx7sv/wNnf+8WzDunCujeDcc3PoN3TwHYsBIri2dh3oJBOFgNFIVq8LenXkANgJyzJ2He3IlozOuGnIPr8fRmY2R8DgKH12H1x622CO3q8e7La9H7plvwb4OrcBwhFJz4Bx5/4QMY1xoahRiOh7sh1PghXnh6t49tX4DyBeMxWMsBAsW4a8HF2Pvmw3ijYAam9s1BS9N4zF0QeQ5Szccr8eTfX8eqvd/HrDtuxlEUImef8Q4Iww5sr7wY0+bejHHIRt3pRtsLjG12rse60bMx884foKYhBy2n69HYZl2k4Cp1PCsOD8SkuV9H4FQV0L0Q+HQdlu8EAK84iYiIiIiIiIiIiKi9aPndeuuJrhzM7eryqY6hw0fg6FGvR/mkQyZyigqAmio0yncGZBegIKcRNbWROxZKvjkPM/BXLFtTi1DgFOrq/VwccBfoVoycxkrUOZ2Ezy5IWV6u8gsRaqlyiMOljhLepptM5BQVIXBKUS8Jb5OIiIjoX0dJSR/s3vExAM1xmXDDyaTySMf3+5KSPjhy5BA0DXCLnYiIiIjozKND14HevUsT+p6c7u/3ieikdxgkqxWNx6vUHzXVoEZ1YrqpJmUnrFtqK1HntkAK83JVX+USh0sdJbxNN61oPF6Z4m0SERERERERERERUap8SS8Y+Ffz8T/xBo53dBhERERERERERERERB3qX/6CQeO+97C9o4MgIiIiIiIiIiIiIupgGR0dABERERERERERERERdTxeMCAiIiIiIiIiIiIiIl4wICIiIiIiIiIiIiIiXjAgIiIiIiIiIiIiIiLwggEREREREREREREREYEXDIiIiIiIiIiIiIiICLxgQERERERERERERERE4AUDIiIiIiIiIiIiIiICLxgQERERERERERERERF4wYCIiIiIiIiIiIiIiMALBkREREREREREREREBCDQ0QH4NeWq8ZgycTwGD+yP/Pw8AEB9/Wns/XQ/1vVVP2oAACAASURBVKzfiDWvbezgCImIiIiIiIiIiIiIzlyd/oLBlKvG445bZiE3NxdFRYXIyspCRkbkxoi2tjacdVZfnDdiGO64ZRYe++1yXjggIiIiIiIiIiIiIkpAp75gsHD+rbhywiXo07sEWVlZ0DQNACxpZmYmSkv7oLm5GXfePgfnnTsMSx79TUeGTURERERERERERER0xum0FwwWzr8VU64cj9LSPtA0zfJPpOs6dF1HMBhE/35nYcqV4wGAFw2IiIiIiIiIiIiIiOLQKV96POWq8bhywiXo27cUGRkZcf3r27cUV064BFOuGt/RxSAiIiIiIiIiIiIiOmN0ygsGd9wyC6V9ekPTtLgvGGiahtI+vXHHLbM6uhhERERERERERERERGeMTnfBYMpV45Gbm4tgMBi7ACBeDFD9Ez/PyMhAMBhEbm4u7zIgIiIiIiIiIiIiorSoOlLR0SGkXOe7YDBxPHr2LLJcDHC6UKC6cGD83LNnEaZM5AUDIiIiIiIiIiIiIkqtqiOf4YknnujoMFKu0730ePiwwQgGg8oXHcsvPDbm6bpuWUbTNASDQVzwlfOwaf3qdo2fiIiIiMhNTc1JPPbE/+CVNa91dCjtQu/oAIiIiIiIUsy4WHDP4gcAfLm+83a6Owyyg0FkZmZaLhQA6osFqs+M9TIzM9HW1prWWImIiIiI4lVQ0BV33Pa9jg6j3bS1tCArkNXRYRARERERpYR5seBBAEBWIAttLS0dHFXqdLoLBgCUjxtKxzpERERERJRe4eYm5OTkdHQYRERERERJky8WVB2pQE5ODsLNTR0cWep0ugsGTeEw2trakt5OW1sbMjIyUxAREREREVHqGI8k+ldxuqEBuXl5X677tImIiIjoX479YkFkOjcvD6cbGjo4utTpdO8w2LFzL3qXlCAUCiW1ncbGRnzwvx/hx/f8PEWRERERERFRvJrDYYTDTejarTtOnjwBgHcCExEREdGZxeliwYP//Wtomo7mcLiDI0ydTneHwZr1G3HseFXS2zl2vApr1m9MQURERERERJSM2tpaBDIz0LVrd/BWAyIiIiI6k7hdLAhkZqC2traDI0ytznfB4LWNaDh9Go2NjdB1PfbPi7hsY2MjGk6fxprXeMGAiIiIiKgzqD5RDU3T0bNnMUL5XRDgi5CJiIiI6AxQ2Pvs2MWCQCAL/QePwv977H+gaTqqT1R3cHSp1+keSQQAj/12Oe68fQ6GDB4Ue3mxruuOLzIWLyjouo4DBw/hsd8ub5dYiYiIiIjIn9raWmQFg8jLzUX33O7ICAT4gCIiIiIiOiPoANpaWhBubkJNbc2X6jFEok55wWDNaxtx3rnDEAgEMPDsAQAATdOUFw2MiwXG3QWfVezH6xv+wbsLiIiIiIg6oeZwGLVf0j+uiIiIiIjOdJ3yggEALHn0NwCAKye0oN9ZfZGbm6tczrhg0NDQgM8PHMTrG/4RW5eIiIiIiIiIiIiIiPzptBcMgMhFg48+2Yk7bpmF3Lw8FPfqiZycHAQCkbBbWlrQ2NiIyi+OoeH0aTz22+W8s4CIiIiIiIiIiIiIKAGd+oIBEHk80ZrXNmLKVeMxZeJ4DB7YH/n5eQCA+vrT2PvpfqxZv5EXCoiIiIiI2oWGyBNciYiIiIgoMZ33TV7tcMEgNX9QGBcOiIiIiIj+9XSOPyhaWloQCATQ0tLc0aEQEREREZ2xIt+pWzo6DKWMdG7c+IOCiIiIiIgS1zn+oNBwur4OOdnZHRwHEREREdGZLSc7G6fr69BZBgaJ0njBgH9QEBERERGlQmf5g6LmxAnk5OZ2eBxERERERGcuDTm5uag5caKjA1FK6x0G/IOCiIiIiChZnecPisaG0zhdX48uXbp2dChERERERGekLl264nR9PRobTnd0KEppvWDAPyiIiIiIiJLTuf6g0HD00CFkZmjo0qUbODCIiIiIiMivyHfozIzId+rO+l06rRcM+AcFEREREVGiOukfFBrw+WefobWlGUVFRQjlhxAIZKHTxEdERERE1GloCASyEMoPoaioCK0tzfj8s8869VdnLb9bbz3RlYO5fu4c0AEdKCktRV5+PhobGtDY1BR9aVvCWRMRERERfQlpCAQCyMnORk5uLk7X10cuFmiRz7yEG04mlbu/7/eA8R0/Oy8P3bt3R15+CIFAIKm8iYiIiIi+jFpaWnC6vg4nTpxA0+nTvr/bA8l/v09EO1wwAPgHBRERERGRPx35B4X/7/cG3fiPiIiIiIgcaNb/+dYRFwza6ay9BmhAU8NpHD19mn9QEBERERG5iP0toXXie5UBGN/zI1HyWz4RERERkV1n/05v1c7D/PkHBRERERGRuzPrDwrTmRo3EREREREZOvC5QPyDgoiIiIiIiIiIiIios8jo6ACIiIiIiIiIiIiIiKjj8YIBERERERERERERERHxggEREREREREREREREfGCARERERERERERERERgRcMiIiIiIiIiIiIiIgIvGBARERERERERERERETgBQMiIiIiIiIiIiIiIgIvGBAREREREREREREREXjBgIiIiIiIiIiIiIiIwAsGREREREREREREREQEXjAgIiIiIiIiIiIiIiLwggEREREREREREREREYEXDIiIiIiIKEbv6ACIiIiIiAhAR303D7RnZl26dkGvXsXoVtAN2Tk50DStPbMnIvrS0nUdTY2NqK2pxRdfVOLUyVNpzW9szxZce3YYl5a0oF9+GwIZPMFERJQKLW0aPq/PwNtHA3j+syA2H2vXr+vQ23RoGfyOTkRERETU0fS2jjnXouV3651wzsHcrr6XHTJ0KHoUFSIzMxM6dGjQoOtpLrQOQDNTXdehaZolNRbQoEGXV0jxVRxdBzRLPJFpM1Xln/543FKPLaQ03vaJx398yceTSHztGU9y8aU/Hvf4Yv2I0J/Y8k/f4eMzHrm/iUpHPBqQoWnIzMhERoaGqqoq7N29J8WZRDw6rh5TzwojPwC0yeX21Z8qKiDF+8vYjOPmXdqrv+w9cojrAFEcX3K8Xmna27vEIz9Ve/BK7fVnTErT6S6HnL1HcX2F5WuHpfn3l++1fUjx1xWjHcjT7v1pUnskpeVJx/GqZWrIzNTQlJGJVw4GMf+dfN/FCTec9L2sSmZWDjIDwaS2QUREREREyWttCaO1ubHd822XCwbnfWUU8vLykZmZaZmv+gPQ8QRbOkjne1Qn8GN/sHr+gZrCeNzON1kWS/Ff7HI4SZ8QTm18PIHvHl9Hn8CXU9UJ/PaJx5jyccKpHU+wxhdPkhWkAYGMTDQ1NeKjbR+mqggAgFennMKw7i3Iy4DHCWPX0+mK1LNDFuol+ROqXoH5OWGcVPOJewPx1aj696pRLqMdpqD5p+fXj/IEq/oCezy/D+PYg0mWxzO39P76FjZkTLofR+YJe3HamPLRXtJeHvf84j9ePZZo51+oXt/3wlmZ2FOXhW+s9fe9O9kLBhkZmQhk+79AQURERERE6dHSVI+2ttZ2zzczmNNlccIrZ2V7LjNk6FB07dYNGRnJvy5BeULf94iz1PP+e7J9/4KO/+/beOKLP96OvuBgO73mfr4kRWf8nDfofQIs2Xjii6/9T+i7x+d6grPTxNOOFzTl6JQXGCIVY4tHB9ra2pAVDCI/Pw/VVdUpieHRcfUoK25GbmY0kxifZ+xSKO0jqOM84erVfxonXOWtt19/4FA8n9tXnXB1vWOgva9gepTH/4lkn9Wt2oHuezi+VGrQbu08qd/WaTpe7dVj9FPC9zep3aT0+0iS5fGMJunjNb72ktnahoJcYEiBjr8d9B7539rS5Leo6uiiBcvIyPRemIiIiIiI0qK1JYy21uYOyTutLz3u0rULehQVIiMjA5rlD6PEaJqcatYUGjTNTAEt+pkWW8b4A82MR06TiceawhKHKjXyNf6p4vEfn3c88jx7XPY8xdjiiy/+eOzxeefpXH+aPK3IQxNSvzEL0Xuk1hitLU/dJpKLJ7743NtmJIjo4SMca1L+iR8+injkVBWP1oHxWFO/y6SKKg/Nkpe9v2tta0VhYSG6dO2SdP5je7Zg6llh5GXCbMNi29ai05o533Z8mg0qFnN8KWLTtmMi+j8xVfUO6t5ClUp5qhqbnKltK2Zucp1ociofh9JSkayl1NarwDLtyqm7UhRdXTqnGOzt02wf0pKW9irXiZGbzz2m2hexjzXrxz626Jm7bVvmDP+/v1xSy7Ei1Y2qLoWloPzUob1o0ek424MXW6nkPjuap5javr/ZotYcpq3HlnN7UBzDDqnnEvImpX/yZ/bUrFT56FWmmoas5lZc3TeMsT1b0B5amxvR1to+eRERERERkVVba0uHPIrIkNa3qPXqVYzMjEy06W2ABsuIe3NEWYrpZmoMYBRTTdOjI8F0YUSumGpIeEiaKhwhb7d4zAGXYizxxOcvXu94vAaAJhpfuuJJbXzpiyf++HToiP7n2J6Tb66qGMz4jIdQGFPQNTPVo58aI15Tf/go4oEZTzRDMdWkNN2MPHRdt/xspO19R4Kt/bbpaG3V0atXcdIvQb727DDyArql3atac2xaaBdmqlvbi2v7U+WgKaajqa5IpQPWjNFs13L8br2FJXUKNSnCxnR7qltSMX49NkJbPErifmdAysvjUDrdWn9Ge5Gzl6M0/i+WUh20kYEmdaBC+/Dew/7ai/j7QTVtiT8JyqK6Hze6S+rZXpT9aQpL5OOQ9+oN5Hn26IT2ojie/PU3PlNF/xPLSrOXR65Fv7Wb3daKa88Ot9tLkFvCp/k+AyIiIiKidtZR7y0QpfUOg24F3aBrunVErIbYKGHAPiJWHklpH23lX/J3ACjHjHmkycQjz/ty3wEgp8nHYythUvGp90Ey8cQXn3REqEfcwxyVqcw/8cNHEY98jKrjQXvFcwbcAWDNS9HfKZaxpsnEE0lb21rRraBb0tu7tKQFukt88hyvY0OL/qxJ85xTedSvtJSf0cOxUduxCGL/HMb0O6fK409KXcvjwXNlzVo074gtqfFTbFS6cWeIJtSB1F6to939BOlUYrM/tRRXk1JpCxqsW3LNzXZXgaWyfMasOUyr6gjW1BKD39YFh2lFeH6K4MKzndjasuoOAKdjx1pnyvYi73BVAWKT9gLFvfeiWcW+fgqbVfc/cbZtZf8j/dPM1M9RqmovrS1tuLSkfUf9tzY3oqWpHq0tYehtbUjL1UQiIiIion9pOvS2NrS2hCPfvTv4YgGQ5jsMsnNyoLe5/2FhGzVtjAtTDN/0fiSyn5FgHvlLqSJiKR45tcZlX9c9PjN/edohFGF1VTz2EZluVPHIqXM8xlqxaVV9aNFhdkYa13BWVTzW1LK0ka9RGrf9E1vda9ijKh7E6toej5km9s4AfyNIY9OW/SMObfSKJ9F3Bqjj0ZXxyIur4kntOwxUo/7F1GvdVL/DwN7POPd3qnXl/s7PO1xa21qRn5cXd6yyfvltgC71d7bc4iS1B/OOlkhBdU1Kxc9d+/foSGmpu7Gkyv5J3pxXfyAff1JqLZ79cHStGmPEN4RSS3cIRDek6U7vDDDKoz6A5Dm2UtmOX6FcHv159KiWUlimnTOOLeiS2tuDV+q8A8z+xti+qn17t3epIG4doA7ompRaas+tN1BuTmrfLv2XYo/4KqFcPCNvx+q1lsPt+InELacwp1XHa1yMcpnTtu8RUv/jo4Owbd2SOhweRv/j3kHZ60mHDr0F6Ne1Ld7CJ62trRVoa0X7v2qNiIiIiIg6QhrvMDDuLDD+QHNK/fMeze11x4CRr5+4vOPzM7rcOi/FdwxIsxxH8Gruy4jxeebpUn+aPK3IUxNSZTyKOjT52VdmfJaRnqq6F+rGKR735iDPdI/PvW1K8WjiOn7jcYrPKR6jntTxmcu4xJMUVTxyao7gdV7GTFOps94xYKaqeMQ0+pluLBP3GTaBjkCGbs0/+j8xde4d/KQeHZqcmUf/6TxGV+ofNJel5f0Ka2pI6HB0mhebJdeKPQY5Vk1IlWW3HVOqPeZzD6r2Rexjf/cguOauyMLWXjzbg98IYNaJUUexcmhmeTTrXvC+Y0BOhQhUjcalPXixlc6t7WrW2J2jlktpXUOsL3V7kFLHAvpoL/Kmoj9ris9s32+kPBV7w5766n/Mf35ahFjXxj6Ipaq1pHIYIn1xMv05ERERERGRu3Z4CKo4IlUcMWw881tDvGP4XHMTBvSp7hpwf2eAnCYfn3c8XiPmkoxP2qYtHi3eeNzi06X53vElXz9O8bjFJ45q1KxpLG/1M/qTG+Eox2OPT3xngDwC0u2dAYnH4x6f5Rn9wtDRWDzSyNUkD1/v6MR4LKOddXU8qa8gKR4h1aN7Lpqa/Z2QQn6GvCE1FWY/nvSUFtvsM43+RUgVB4h9pHd0O1L5ffUWQtOU27//6nPrHyBVoHV/xtJoScQ7AIx58v61728h4FheMKdTfPzY26eZqkfQq+8E8PfOAHGW7tBhevw+sE075KYL8csp7NWXUHWKlSVPu4wAd0/NpS3tQxdG/gtpqr8fSQE4fl1QpWJu5uou7cVSf071Zt+idZ7X9wehXenCOwPEaUVx/W3dpe5URVByq1FF+xDvUBKrTuoeiIiIiIiI0i2t7zAw2EfExj7xGHUd+dk99ZOvQxr9WXNcxnV8oM/4zDT5eOSt+qkbv/HY44MGYcS7Oh7rZuV9El98Tm0g8XhkfvaVFpt2b5vWtuwYT1zc45NHB0faSvvdESCPAVWNqtei8TmO0LaNik8intjIWWlaKLQWPZjclrGkcfQv9oCsqbLMmpnK+1IZXxLxpHLfS1tW9z9xjcg1tmL+M+fK09FU1d7lVK5Ha4TxFtO+sqVoch4OMSlKpkWDtYxety0h3xFg5GbWYVypZZYRg7SLPLbkmrttW/aasbeHeHKU2ot8DAFmXWrq0fP21mWL0FIe1/Cc5vlkb7tSqmjzsWlzCZfUCMxhj6kK6dhpmFs053ik0Sxi3Z30mX0d228YfzlZYtZg7X/MeX7uAJBTy9KalMpZK9KkyMU0ipSCTRMREREREXlJ+x0GXs/5Vo0qF1NxRJb1DoFEnmmrGlJnTW1xSFHIsdvjUb9DwGELPuKRUs945NRvPOr47CPwralbQOp45P3lPgJPVWNmqorHTG3jVVX5S9XvlaMtAtf2ax97aRlxbLnjxm88HjWiy6k1LsuaihH5yT6jX5WHW6qOx6gPf8/od81fTuX8bRUk9zdIMB6f8dnCkOvHLR57fPZ4fDckf6LtWvdRXh2wP5pbjEoZplO/5HT8ObV3XdWdulaLMducVtwpoFtTywZdfyGp94O9fbqkyoo0KzgyAtnp3QEO7xBw6249m5H/dwao+mf5lgBlu3YIwwxH3onOx7OqQQpHl7y0P+Lm4+i/lHecqFIpIEuTUrRve/zOx5PRDowNR6pFSC37Q0/w95M1b9s7f8T2ouu2d5a49a/2+1EUqbTbbVXh+U4lqb+RU8/j1SH1ijtWK+p3lhAREREREaVbO9xhoMEcp2VMu6UuW9LcU+NnzXEZP3n7jdP7jgHvmP3n5Se+5OOR+YlL/KeKx+WOgbjjiS8++2hdezziKM7k43GPTz0a2isea4qk4pGik0e0KvKyjIp3iScVAdnvipDzEu4YcFomhRVkbwP2vOz7UGxrQjwJ9Hfe8VhT52MuBY3FzCLyv9h25WPf/Oc8otesI1V71yDUte3YgWXaO1a4F19YRl4ssTsGhNTWHuIcAa4MUKx7a2r92N9vXNfc5Swhtzk/Obik0boxUmV70aLTmroleI8XF2pHta8TPxxtbP2Xqr1oYizxtjDpn6o92DoF59RaZEV7UWxSE1LlMq652o8wS6qK3dYQzdbqfndFHHcMiEvZ+nhrpHFxa1ua/WOnPaRqDUREREREROnWbu8wgGaOKjPm21MfI+68crOM+LPO83dHghyPV8zu8Yl5JxZPvPG1dzzJxZf+eOKLT35ngByPEX564pFiiQ4ZjaW69dnW7fLOAGFEpfKdARDfrZCWCpLiMdPYKNVYKr4rQIrHVkGpqTDv9ive4RP/8ZrKeFLBGLkfmUhoCw7T1rZumYZxNETbvTDHdgeAlFrqN1YhUEwnWh7H0kAqijK75N4ZIG7QmBbLpWpf7seDS27q9u26tTgpM5fbm3UhOWJVexGnxXbh750BSZTIrTJVRZNSP72F5zsDPHPQ4JWDY6rrtqzij9+l9/OqP1/cN2L7HSuk5jtnEFvWtX/xOr7S0N8QERERERGlS/u+wwDWUWqwpc7jA4Wt+U479x0AihH3GqyDLlUxW1I/cYn/VPF03B0AcnxOo6PFfZHOOwDkVDVqXLPFI6fJxCNHJx0NqjsAIv9zXSZVAaXnnQHJxCOnUh0o9pntnQFSHauP6UTjkVJlPNY0dizE1ef4iycV7G1Syst3dMqN21cW+0bbbwXNM7XUpnK0umZNNTFVBRVHKs3SxNn2jx2LrzktE7ujIdYb2WrGlqltK/LWnf/ZjiFLDFJdO+4TW4SWurFVgCyOBuY0ht6pr1Qen9CkNTWXVApQucOlfeF4kPrvAWJpdNOudwBYjlPXveGdxkb7C/+ELzD2OoNnar8DILo5OUIf+983p+I5xqBuDXIZbGW39D/2+jILJkw77gMiIiIiIqL0aod3GACWEVed7J0BtncEyM9c9iibPAK+Pd8ZYCuNIh6puIp43Ie7WfePqn7MtNO9M0DxDGnVHQsloy7EiMIs1B3chH/ucYpHHZ/7OwP8xJPcOwPsz1S2pma49m2nJx45WzkeKbXEI7eX5N9hIAdk72+s9SeuoD6+rfHZ4/GIzyMey2I6AE2OR0qNxTRVlcZRTz65tnd79+6avTlSF0Kv11nfGWBPI/Xv950BDt2vHJzUgeqWE4SJvDPAWNWoJ/fqc9pt5rTcUOUGLKQ6oGtSKpTEqzqUC4ibd+u/BkxGoLgr9JrNaNlVIVescwnl41OcjFZvxrhFCBbtQvivL6LNFr9zwEa7sEzr7fHOAEUqNQDvdwa493LKw8Qyw2FBtx1sqz3n/tIxQNeP7f2P8VPsDgK3l6AoOmA5LPfSqT4QGp6qv1G+jIGIiIiIiCj12uGRRID7KCn/J9z8jC53P8HnNWorvvi06Mm8xOOBJJ64EPtTV7PEI6fmasLftT7jiS8++yhAdVzQjFMn9hP48cXjHp9lBOngqzD/xjKMLsoHUI/P338Ty3+/Afug4bLrv48fnJeHz1/bhPcelU5QJ3XCxiUeRQrN2JviS5FTGY8UnVc80FJ/At81Hjl1ikdOzfji6U/ij8eaOsdjxmU9ZuOMT5MmneKRlhH7O2u/l2bqbsqcJxVX06X+wtaPqFNjDT06ijmW2tqrGUjkcx1x7Q+pv7L1/9DtiymqwalabFvVpBSafQFfOTjkKDUY+9KRijPLYy+3JkyrHwUl1I5cIbBtzlHGhYsQHD8VGXkAmivRumUpmte9FTtBHymO1G+J7eTynyFn3FDou+9F/a7HAON4sJRCcymdor1oOoD/i9xZdyAjoxYZp17E6Q2WBqcooNRepKqwpC7HNYytSNm59yYe7cLWockN0BqBsr1Yjkr195HY73tNj7WLWHuJlcd6gTr+3loRoLgh5XGq7n9UPRKgaDeavf24t+/k+h+5/RAREREREaVTu73DwPYHrvH3tesYrPhPAIoj0IzNx1LVCWnPExjJxZf6eJKLz+sZ/cmdsPeKzx6jPR5rmop4Sr59D5bddC56ZJrz+vUfgovGn4tH5/xKqGfxefiA6hnXqa8fK+szuIHYqEVdfmeAcQEhvQHZR17rsdQ+4j29FxRs8UjHlDIeQDiRGX9/krp4jP5PHIGuOmZTF4/raNxE6UZ9ur8zQDlCVxw9K6bJhWOmyvoXpgEpSnl/qIKTUlsFa8IiftqX/ZR0ZOvytNFepNTjhHFSFWipRGFaWNDtnQHWpa3vDLD1o9Ac+4uMySuR++3xwqnVocjofxkCox9Dw3/9J1r9lgeI9ZvGPI+9q/jtKbeXjWg58B1khd5D8/Zof6g/itAT30HG0T/g5E/nRxfUlfVnD9ajnUjHj3FngJla44U0HXdvJ27I9wqqaXVqaS+W49V6x5SxjNcdSK4ltPQ30rTPA8Z36eR6g/r4lKM2/u+///GOmYiIiIiIKBXa5Q4D/yNi5dQ+4kuxBeFn659m6hFv9niMTeie8dhK5jM+P/H4uyPA2FxK7giw5Ku+E8DyB6+qPuI6Y+UVj5xa4wOiJ5bg4wS+Ec9Ft+CBG89Fj8xmHH3nWfz0/nXY27sMP/jhN9Bvywv4G4AZDvE5j8A3lk/9I31EtlpyvDNBM6Lp5HcEIBqHGV8Cp7SEAKypYzyxA8rvHQF+4lHE5xmPdTHveMR+BB5x2eOx3xGRGn7vADDm2EbkakLUUnt16889U0v/KY3INT6WU0u0Vp652spj/CCkyhyccrRO29uN4veIpkXuBDBS6dSk6x0AQv0owwXsBY+DrX243RFgpNo1yLlqPDTUonXVt9DwyofQzrkD2dd9B9rWp9AWW9Y4+ezUXoQCaEJBPH9hWOfY03Vouv9sNInzzu1mWycWjZSdtTr9tg+HjiTW3mBpz2YsDt87pNTWXjTn9pLS69Ny8YwixcqjSYu59zeOdwDEDkd7/2PdIXH2N376Hx/9jqpK4JEbERERERFRurXTOwxiU5D/9LE/Y1e1nsPaOmwjeL2fkavaojkdzzsN3C4s+LuDQo7FHp/9HQZO8ahPoHv/ge8en22uZf+Y8aie8ZtYPO7xxUa4x6atcYmr6dDxnemXoF8QqPvwBdxw39rICevD/8CvF21C7BE/sVXM9ofek7DoP67Flf3zItMnD+H1P/wC9716DBgyCQtvnoTxI0oRit61ULdnHe77t2fwT10HMBu/fmECCrc/j+fbJuN7F/VENG+56wAAIABJREFU8MT/4uezfoH1Yi2pTugneUbG7Y4AuT7FEdhQ7h/x1JbjU9kTjCe2hBSPefy6xeM/9YrHmqriUd4poOmK3ZOOeKzLer/DJb10MxApSIfyeaWO9Q9rP67oz6O9jJTCMu0agOdu8n5ngNM7BODSP1uONz9hWCrUpcEo6st8d4DRb4q1Z61qJaG+bPGpLpTCeoHCs4S2/dIPyAaAGrS9ty2ym3b+Eg0/+6Ww2kPIe3QWMuo2ovGe69AMADdsQJevnoO2Xf+J+sd+a8bf5SrkL/kZMkIA2prQtv3nOP3YY9B1HfoNG9D1qyVoefNJYMxCBAqzI8u8cxMajt6C3KmTkJENoHk/Wv76LZxesx/ALch74P8iENqF8LwJaLxxA7qWjYrk1WsGujw6Azi6HCfv+0mklsXf17r5rgDd8ReitQV7nkCWD48o8/y38/GjSm13jMSalzztvlv9tW9Fe/F8Z4DT70dji26ls6f2/kB9HMX/zhKP/gdQVoy12C79DBERERERUZpltG92mkdq/Kwpl9HkNPqRPOAulgqfyXcTxBZMKD4xfzlFbFqVf3yjfr3isdaVOh4thfHEF19kJKkmpKp45DSZeOToLsGI3lkATmPPe68q89KkNhD5bAIeeGg2ruyfhSOfvI/X396D6pxSXPm9O/AdAL1HXYjxo3ohfPBjvLX+f7G/HggNmYT5d42IbiULwZws9Bh1Lb53UQHqDh7C/p17sF6uJcWdAlp02m0ZdQXFX2HyMWEf0RzZV5pmHli2ti7tR/Uxk+J4XNq4tY9QxeM/Pj/HinzMq9q4+nj1c2wnG09qjiNLDBDbp+rYjk7byqrus1xTTUotH6vuZ7CnrrnJWVg3b887odTM3agbxOrIKIcmlMeaakJq/1RKFeWJSf7wVNSR9dg3YzBTsQzqqOX28j7aqpoA9EfWvVuR950fIrOXvAdzgOxsIDfb7HeyIvO07BxrzH3GQ2t6Hy3bP4Temo2MUf+BvO+Mj3yWlQNk90Jg8iIEsvaj7egXQEY2Mi55Dvnl46Gd2I22k01AVn8ELluEAAANkXyRnROJuGY/2k7URjJrrkXb8f1oq65U15j7lxHIO1A+hvy0CLGu5X2h3mfWCOLisbLnMebRGmxLaFIqHkux41R1xDv2ANbU45j3Lo+9OlxzdztefcVERERERESUPu3+DgNo8BpC6fKzariWdYOWAWOKQZialCZSHn/xRKbNvDvrOwPSHY9zfMZzjI16Ur3DwKjOxOLphmAQAE7gyJ/lMbVyPNEpXQdumYSLuwN1Hz6PG+95Fbqu44K7H8HSSwfg4u8Ay5f/BrduOo4jh6PrTl+EVd8bgd6DyqDr282NBYE9Kxbih3845jtiXZowR3oKIxxjqfzoCF8HWHykQ1AXUmMEqx7bh+l/Z4DYpJWDrTUp9X28JhaPZYC3qr/xPJ5SG59bPKlgecyWqj0Y00a5IZdC/QxvX6l1xzr8QnFPza0l8PtCsdWkiJUnTsvlFlLrCHAxfj1Ws7HU6B+E1Kg/c9qQghI5he6wiNS1RKPeiIbHfw7tzv9AoLA/Mi/9GfLKFqFtz2/RtPw/0XxMt6xo9IvilnRh4/re+1D/0BK0QUPG9RsQmjgKGUOmQ9M3os1Yb/8vUX/fvWhFP+T+/H+R1asJbW/dhLo/rAWKn0To59cgI9QLGbqOFkh5r74Jp5r+gq7Xjod2Yg3qFs/339v5bfqu4mgvujWNtXOz5oTfJ+7vKHFMY3UvHqfxlMd/6YzjUux/UtrfWI5Nuf9x+kKr7m+U308VOWq6ot8RUiIiIiIiovbSIe8wMAZI6bCfULOm8kgqv2O6In+wqZ/ND3M0WtLP6Pcxas1WD05xpSKe+OKzj+qX4oHq2fxSPEmQxwg7vcPArMZE3xkQRHZvAEf8xXXtwF6RtfpMwNOPTYjMzMkHkIVQEaBpx9FlxAzMvfMSjB5UgFBOllkmTTPrpX43Nv7huFDGOCtMav720ePReoodUFrsuDH3UwrfYSA1o/jjscfnfaLXJRzHOIQwhc05vyPAfPa1lY8TZHHEE/tZON+k7u/89Sde8cnvbEkNIR/pYdzK3tq+WIKlgfAMcmF/RWaYqWtOTr9PolOx/s/4NDqNyA6yvCsguuM0IUL3dwZYW4syXMBecFdS/EY/6tSfKupDbn/urV2HNU9pCflh7VD9AhOjlY4fI/3iMTTcsxqZkxcg+5JpyCzphoxz7kDuD7sBP52PFk2xjlwzxozWRrRFS9724X60TRyFjK79EQAQNkrRWBl9kfLnQBsANKKtcl1kI180RhbKK0Gm5XcRINeqtVzOaay9GO8KcHlngFyNSZH77+j/7O8McE+NDdjeGWCkxuGoOsI1zfoFx7N/9e7fnMujLLYYjUcu0vGg+iLrq/+Bctq+tEv/I/RDvHJARERERETtoYPeYWBOd/Q7A3RpyumdAW7PpHaPx1Yjrqltri6m1nhsJ6hUJ/TjOgGliEeXU2tc1jVV8cjP6E80HiNfp7jsG9P191B98kYgvyf6XQ3oT6pfAqybK0QGEqrCaDyB/ftP4POjOr7yw1/gwa+VIlh/DFs3vYKNJ0ZgzvQhCCnjEOpT2h9uLyU2R3Qa/FWYfZS0XD9m6n08+TlxE2881tQej9M7A1Rtzkd8UrGd2q+qJOp44nlngD0e+7tI1PGoVlfup9hpXPtT6tNCd3pmdzRHt27XtoLi94FRTz5T5/7Zqb68WrPcMFwasI7YOwJs7wyIvTvAXg2qadsHutifGtXlp79wOj59HA+K6tSl1ZxLouhfAGi6lMai0z1+P+1Hy5r5aFkzHxkX/QZ537sGGSWTkXUx0PyukHu00cnfMyzTevSdAV1zbKdwYyHr9rc6GMeXMMcSox4rJezLpOidAZb95NHd2du31H4g/X5WHj8eHY6i6txS+wdCucR6SvCdAZ4ByZ9J/Y8evYChG9Ne/Y3j7xfFOyd89D/OBZDrS0qJiIiIiIjSrIPeYSBPu43MMueZI/TFVBjwJfzsNsrXOz63VItNq+MRn6ebbDzu8alHlGpCGvnMSM1lxDSZeOToVPFY89Ki8TktA3k6mXi043h1d+RxQEMuvwvlfYRtD/kW5lzTy1ZuTdPwVuWJyMTx93H3HT/B7Nvvwuxoeu+Knrh6VCmCqMFbS3+EHy99Hn+uDsMXqTmpRgBrWnQ61pbMfWksI66jPmZ8huPZNp3bttnGrceEv2M60Xjkeepjzt5/JBZf/PHY4/POy2UZzZoq89DM1CvWVPHTOyqXkYtkK5OwgGdO3hHY+sNoRlq00qTeylgLmm2umMKclneVShL1b8vTqb8Q24hQBnVprKW0/HPbB44Ny+n4Ud3PIKXRrGLdXfTnwPSHkD3AXLbtvW3QG53rCdAQyCuwTFs/jkxnDCiOfFL1EWw9tvA7yRq/JsyRcxXrWlhLE9aOVZfcfhLgsbL9GFO0WSm1txch1aQUZmcTex+H5R8cph1SZXszS6PuM5yOds/cFNtS7FG3Y8A1AvPoi7UMx/7HTL37GzklIiIiIiJqH+3+DgOPAWvK9Z1T+4gvyzP6IYzy1B3y1+A15Cup+OzxCGlK7giIJz7dMoJR9c4Af4/4SUU8ZhxiPJo0zzkefxX0wUMr8daIW3FZ0Vcw/+GHcNnWCtR1HYARw0rRA2UIbb8L+yPPo0DhoNn4uv4MXn1+A7ZefCNGD7sav/yvAqz8WwWyL7gElxXvxt0/+SMamwEgH4O/MQPf6tcL35oxAqFIwNEYxWGoTu9O8FU91gHNwshL87gSU48hqAk0KNcB1srjWo5HLFjy8dlGRMNM3UfgG1uX+w95nlM86vjijce+Na/+zW989njSMSjVaHve+zHa78Uil6fNurLUF6R6cy1tvMHDzEychnNqGwEe+1SHOILbmKcZI42N/h3qOwL8ti/v8lhTeaC4V+uy7zVpJLd4h4Cl/nSH+hOD899OgMgO17/+F+ROGQ9t0iwEP9+IlqON0AaOR2YegNptaH5HB1AJvQlA3sUI3vkbZLaNQuDcXmYd6OZIb23gPOTPPx9tjf0ROH8UgCa0bnvS9rtNN+4YMWcIbT02y1LKyLQOnGqKzOg1Hnnli9CG/Wh4eblUVbpl/0Te8eHjDgCveotVv9DBOO0SH1yPBrGdQd2/2aP2ugNKSmOTRgemWed5fGFSvUUnsll1/2O5sUHsf2DtN1Pf/+iKAFT9jbr/ISIiIiIiSrd2uMOg4+4IsI3R0qxp5D95BL6Uf1zxuMdnH4Gvjgc+4klsqJl1JfsdANY09rPmvkyqeMejGHGvWMaabsC9dz+D1/efBvJLMfrSS3DZqFL0wDFsXfVHPLIT+PPmz1AHIDTwUlz1LQCHX8GPH16LPSez0GPEBMxZOBvfmTgEvYt64TIAf3z9Y1S3ZqH32HL8aPZFCO57H3vqrfEJpfJI46kf91TVxuVjL5KvGGPi8fmPx97W3e8I8Jk6HKP+R+B7xSPXVZLxRH92vSMA4rSfunDen/Z9nwJCXxVffPZ4YyNyLcd0siNy4TCtCM9PEVx4juB2uSMgVlZbaaS6sUxLAfrZF7Z+UY4+jiNOE9qwMM+SWtaJMwdNA/72IzS9+yH05mxoAyYh66vTEOjVDajaiPDy69CsaQDuQ9Pm3QCykXHuNcg6twBt61ZFXj9gKWkT2vYdjSwz9kJomU1o2/yfaPjLfqH01trQYNuIt3fuQtMnXwAZ/RH4xgIEL5mGLFUxJebvekRTe5u27n23JYDYXRKa0H4snaARjLq/8Eylg0m5pNwspc/jyl1uVAkdA3Ju8jElpEa5hPJpQv8DaS0oU1imLTzag+9liIiIiIiI2oGW3613woOWgrldXT7VUXbZZWhqcntcizEyTJ52GPtojMg35qoGnKWUn3jS91LgeOPr+Hik6JTxpPsOBpd4eo/A+OEFCIZr8MnbH+OwGM/Q0biybxaqd76PDw6b9dp71EUYUZSFugP/wLt7hI31GYHxwwoQlufHE49qhKYl9TMyN3He+dvWQDzHa7zxxR+PU3x+4vGOL/l4kokvtfF0794Nm956C4mfidJx9MYaNDe0OsRrBGJ+rLpDICWtNz2Hg711q/otxDkCPMYlwBSVxzOalP++9MjRx4hwt61lnH8NMvOAtiMvorXC/rl2zjRk9mhE26Z1aHWrv17jkTWoG/R9q9DyReqKa7RvgzZsGgLdgbZ9q9D6BSDegRJZzfxJ2X7UQ/aj5UhBA/dZHj+tOqFoVA0y7hydjy/Xd0qlIn7P8iS2uuPmVN+XogXqUpyLkj8WSFuwCjecjC8gIiIiIiIiQfovGITDaf4LzUzT8xLgxOPjCXyveOQ/7J1f6pmmHZaCeNIXX0dfUIjnfJY6txTHl3Q8qY0v9RcUkovPLY7UXjBINHz3U2SqR7LYU2Nph5eop7O78Nh+/Kc7PU4Z+jrhnqbjyWPrqTlh7HcF9QaMduHr923sBH0Kpbb6lYdLfN9fPNqTV2rZ8fF3YPG0Tkt3kLbj1ag4KCvUuAAYT//jnl+6y2NuN1ScwwsGRERERESUVul/h4Gum3+HpuQPKl1Idds8XUiVz+gHrPGknDW+SB6RVP3OgFSeYPQRXTQT8x0G1nntfQHByCJSP4C1zvTYiXHnE+TtGQ+gfka/mKb2hL0upGJsRmp9RrRuXTmuUzjOMYibs8WjWVP71t2P17hPSQqrqupDjifuAvqOz563cv8kfXzHF59bPKkQV5+gCtdWh9aF3J7hbX8auuJdAVKa0lPeyvL4W8R577k881082MTUtkVxOs4TxLFNRqZjWUntVd46HLZqcDyfrUpd+WsvRv3oQmpt/9Z3ThgXbJK6Y8RSf37L41Ya+6EipuL3FksKVftR9b8eqdxxxnWhyrwEFtma9QS7sv0oymNIyW93SyXK00J7MT9U9DewzHG9oOD6Cyg13wcsKRERERERURq16zsMIv+l8p0Bmmtqfxa+Ih5NSFXxyFnFxSseLRqPZl1Gc1o22XikTTjkoX5ngPMyqQpIrnt1PGIq16EqnsTjs8djTe3xOL0zwE88ivgcjglLqpmptV7UcdnziqO+4o5HXia17wzw3j9+9qFLAV3jc4pH1UYTjSe5+OxtMXnOz+xWpH6aW1J5u/df8b8zwAgsjncGxLFD/fZQYtehRTcV+0w+nizrxJmD5YA15gvtx3IwOzw3X0rF5+3bPrVUobGvrOVKilw8cVJzicGxNaTqnQEJpm7lsZRLuXjsZ81pXdu25J3h0vY1p62YuWmWaUUdGm1YaMuqdwa4p/YyWwrv+KH3Mk7vJXDrhyxlgPj9SSq7MjVyc9hj8o4mIiIiIiJKo7TfYSCPwraN6JJGAULXIktF08hfR9Gxc26PHNCkAV3OESnj0ZXxyKulIx4pG12Ox5qK8djG96nuEEgyIPuoaTke52Fv9uyTf+SQczyxJWKpcSdAZPO6Mh4j3/hHmDrFY01V8VhTWKalrachHuuy9nh0l3jijy/+eORUjieeYZZmP+KUuq6tjEc+nJyOA/W2baOeXfo7eQixMg5pLVUdpFJsBHf0uIqv9NYFbCO+Vf0pEh0Brg7I2GVGdcupsaDutAHxeAag6S6pEFZi3a/xECZhWm7H0YahOzfQKHv9KGtRt6aWVSwLQFpAndrvFIF12qU/cDocnONXvDPAaUfrDvUV22C0Xl1Lp2jvbjOkCo5kZ71vRk4NPqtbqj+jXRgbMB/q5ZTaWkRs+/K0Q/V5ft2QZ8oHqDW1tB+x33Hof9wY1R+LH9E7lKLzXb8/efY3Pn8fi/G69D+q+lG1CyIiIiIionRphzsM4qEYVSWknncMOC5jpqmMz/cdAy5p6qJRbNt1xJu1YjrXHQNu8fiPT96ELZ5ovsZdHfZ45DGEqYnHMY3+rMXmecWjSf/ii8/P4Gj3Zfzk6T++5OOxldAj9RPP/9/e3cfZVdd3Av/cZCbJBDLJMtGEkkjBhihQCAJSeShI8WlpKetDgRSxapUuZsW+lPqwK7tl25WKvNS+WCp10db1sbx0XbtUi1REA1oJJVJAQiDREGUCGRoSYJJ53D8yd+Y+nHvvzNwZQH2/X44/7p17z/me3/2dk+R+fuecZ/GMgXIfNxoLY91amhgw06yjDW0cLupm8NYeI8e2vbIdO3rV7QcTbamqTc07Kjpson8rq6jruEYbWHgOQs32VO7LRft3qxFQv87CtuGHXrSttX0yuTMGqj6DUsWrGv55OwMDr8HuML5pdS8r1T1uOl5KNW1BX4z3X+FPQZHN2tr9uejpmnfWrmlKa68dZAU1tF5K4wpq/75T1Ifjs+4b9nBtm6rHVYp2xUa7Z4FGe/DE/lozlivHT/kzq20bbt0kxkvRZ9Hk+DOFTQUAAGjb7N/DIEUzuyfamVh+ZVt1jf6xqVvjbeEMshRPGJsh1fVkYtbi6GhxPeVCZqiD6uarVcx4G5/hODazbXL3DJjZDqutJ1X1JLN+z4Cat9TVU6pum894n4H+ajLhsrie2v2p2RTUqdfX7AyB9maYjqa4xub11Y+XjM80bbb+xr3fqr+a11dUT2Xb/vFusp9nxuopjbf1Z9/MgNFMzMwtnwFQ0ZbrmTgjoGwa++ckhsfUeiepP0+h5oyA8YVWtFVLrixuMvtTbcHVO/DEDOOxx+0tvXX/tdSsR5PR2sejo+NjorrryjPoq/aW8XFRe8bIpM4gqZqmPb0dqvnWFRzfUrMf11VVf2eNSa4pE+OhYuV1B4wWx8PxpdU+Lnj1aIM2DcbPdFR+RpX70fgZAcXjqegMlKncM2D8ccMDbpt/Pyh/XCloU9wWf2pNxkvRwgtP9QEAAJh9s3qGQfkfdHXXca2YUTWbZwTUzV6rm4E/9rtS89fMVEF1c8bq1lWeNVxq+poZq6dukTV9kInZpA1nW9f0cf1WtlNPTduynvo5pQW9Pun6pj7jvXiMV7eVP1Orr/0Z+JNZ1+Trm/16GtVXuf7S2FO19ZRnuGZiknBRHQVrKFpX43bip+GYrK2nqI5J1TO1+saPu3Nm5gbmQyPV+3qz48X4ZzK+P9Y+LmrLtY/91Hy+423ltjY8Hk7+CDDeVnw2lc9VtVXvaTw/umlbtdCafa38XJNZ783aojMCxtuqVVf31+TGWwONNrO8SeNtfcXNRkfdO0pjv6nom8r+mtjAisdTHwXjbeFnXzsca95Z8Ik2aWvPMqgdyy3GfuHaJn7qRkSpvF0VvV6qbiuvw19RYcEIn8T4qS230XMNtBzxBbXWjZ/KbS14xZQ+saLPos3jT9XaxxZddfwptzWrKR+LAQAAZsusnmGwb+/elObMychI5ZdVBTMUq9pUtDVzswpm5NfP0J+a+nsYVLd1Uw8r3zulekqZzCyx+hmPtfXUtFX1pGaCXfv3DKgtqP6avNX9VzVHsGDCX2199fW0qK9lPdVtfT01bXltpaIuncQMz0Z1FHVt+W2ZeE19PVO5VnFRPbVt43qKP5fqz635HMrp1FPdtq6ndsLoZOsZLXi6wTXgK9qp11PUB03apuO3+TXFi+6R0rqeZO7cudm3d2/xL6dg21NzsmJuKaMjIxV1lY09bra5o6m/lHz1y2uWWb2E8n6x/2HxPQNqx/FUD3e16246XkYn7h0wfg+BJitsejQZLWirnmjwwhbjrf7Pt3L31dfW6vBbsHenlFLB44ozBuou0j61Adxyb6/7RcXAq+mv8vG1/ILK42yrewg0LKhpB03cg2LiUyg+7kzmHgLjr2p2XKpZSuMNqO2vgnY0Te4ZUDB+WqgfvhVnKDX8+9MM/f1g7P+mc8+A2sdVbc1xqGz8zM1p/nVrfJ0Ff27O6Shl21PPsauJAgAAv3Bm8V8dpTyx64nMmTO3/HBay6hsW94PoDT236Xmrxl7YjoFVVfXqp7KGW6l4vfUbmN79dS2RfXUtqWKtqie6dfXfHZ5o3oq2/J6yz/t1VdYR6l6KFS/ptUZA1Opp1T3VNN6WvRdcT1Tq6/V51Ma++9Si9dMtJP9jIrrazQGplJP7VKLn23WTvw0H5vlfau4jukdXprXV3fN8MJ6attkXkdnntj1RBr1ymRrW9/bkY65+2fnlj/vVmcQVP2U62w2wJuN15p66l5RNF4qfhq9pnHboqai2ks1beV4qmvT4PFYWxr77VibUsGrxksornhKWhw+Gn0i9Y+rn6k7Y6BU01YuqWaMF3yCBY8btDWfRanq19OYAd6qrV1lXadNaikNt3XiTIGatnL81PRtk9HVoM3E4xbjYaoajp+mf3+a2AeKq67eyup9LVXP1X1I+1fWsK3exKmNl/IT1eOhYDU1y6hWvKbO+XOzvrej4bsAAABmwqyeYfDoozuy9PlLU3nN65TSxozP1ipnVNafvVB5ze3aWZazU1DVhL2xGW0T7WTuGTDb9VS3s37PgGnXM9F/E7XMfH2t66mdENtsDmxtHVOsrzyjc6wtrKfl0qbaXzVtxUsrh8N4PaWadszke3+K9RXUU/T51NYzfc3ra3bPgMmeATCT9VUeY8rX9J43vzOPPrqj7TX93dZ5ed2h+9IxOtxg7fXP1Y+qiivVVw7uyrZuiZWPW+1PFW3BAJ1YVcXjKdXfZH9rdChoqvZFzY4nycS9AkZr9sfy8bp6TnTdjP+xymsfN+6/Bh0ySZPauorjycS4KD6+1Vbdqr/qxtP4PQNGG+ygzT/xiaXVPi5YY8X2VLWZcjc2V9SZhfvTRMXlewRMLKL8uFT1mqrxU7EfVT0u3KIZ2MKCTZjs/jrxuMl4adRfleNj/Ev52uPP5Nqq8VJ1/Gm+ezU73gwt6MzfbZ3XqvcAAADaMqvnNe/ZvTt9O/vSMXfiLIO6mZLPhTMASs+NMwAqZ5M2OgOgaBbndOv7uTgDoKqe2udm+AyAtuupr6/1upu8puap2T8joXl948uoGQN1ZwA0qyfVj6tNpq6Jn1+UMwCmX0/z+kqlUroWLMjjO/uyZ/futpe+4bG5uXH7vAx0dhQWPNXRVSpVjJmK5yba2qNcxViczBoa7TBV+9jETlRe5mTnZNe9ulTTFpQwIxosc2Ldqa6hwZa13MbS2DtKE+8c/2n45+M0jjFNjifV21O/hIJPtEk7seDy9tW9qnalDddYX0HdnP6a/X+iTyfW3Xq01fVWvSZd22wBjebQN2zLZy3UnAFQ3dZse1WflAuZ5CdW9FkUnAEwlbZq7S3GVtWYnPKaCra15g/sqn1rssef7vm58eHObHhs7O/UAAAAs6R0wOKDpz0NbF5Xd+sXjY7m19ccm/nzF2RoZLitSWezcc+AdtRPUJyBewbMaD319dXXM3v1Nb3GclU94++Y0fpa90fLJUyhntb1tV9PO/U9E/W0V9/s1zO1+qZ7z4AZq27sOFJeYbPjXV1vlpKFXV0ZGhzIPT+8e+KLtvaLyj+8ek9WHTiYzoHh+v6Y0u46xf2/6QdQMJ6aL61+731mD48tl180X3n/jO+Jx1Pur+oD8KxuT/EZAjPYvXULmMqaWo+Iqez/MzI8Zni8NbzHROXxY9I78DQKmuL2TPFoMLG4aQ+oKY6PFsefJneimJnyFs3Pg3vn5ex/XDSp4/lAf/shMQAA8Mtr9gODjCajya+tPiI9PT0ZGRnN8MhwRkZHZ/wLGF/gz1Q94++Y1fqm/gXxlL8CbFFA9dubfr82qa1ts79mvJ726nvmAoXJ1ffMf4E/lXqK65tV5RWV68loOjo6Mq+jM/Pmd+bxnX158IEHxrq49RdMk1xpMpr85clP5+wVA1kwOpzhodGMjoy2NX5n5gvjyb6h2QJqP9/atvrznlFtHl4nvXWV47Pp+qby1WejL1jb355JH+1n/Y/38nalviMLOrToklD1l4hqvbpZ/+tKzf7a7ONrXk6LETjLAUWzcT4zf362WmFBAVM53hSMj7mdc9M5v5ShBfNy48P7p+iPAAAZmUlEQVSdeef3Dpj08VxgAAAAtOMZCAyS8pdMi7q78/xlz8/iJUsyf8GCilPbAWjH6Oho9u3dmyd27cqjOx7dfxmiGQ0LxteUjCYnPG84v3f4vpy6fDgvOGAkHXNmOyEB+OUwNFLKtqfmZH3v3Pzdlvn7L0M0heO5wAAAAGhHm4HBokzty6jR8v8AmAWl6v+bRY7nALNpesfz0Qz075mVegAAgF8OHe28eXRkNKU5U/lHTKn8v/iaCWCmPZNnbTmeA8ye6R3PR0ccjwEAgPa0FRiMjAxl7px503y3yxEB/GJwPAd4LhgZGXq2SwAAAH7OzWnnzaPDgzNVBwAA0AZ/NwcAANrVVmAwMjKc4aGBmaoFAACYhuGhgYyMDD/bZQAAAD/n2goMkmR4cG9Ghp3+DAAAz4aR4aEMD+59tssAAAB+AbQdGCTJ0MDTzjQAAIBn2PDQQIYGnn62ywAAAH5BtHXT40rDg3szOjyY0tzOzJnTkdKcUtwIEwAAZtJoRkdGMzIylNHhQZchAgAAZtSMBQbJ/nsaZGQ4/tkCAAAAAAA/X2bkkkQAAAAAAMDPN4EBAAAAAAAgMAAAAAAAAAQGAAAAAABABAYAAAAAAEAEBgAAAAAAQAQGAAAAAABABAYAAAAAAEAEBgAAAAAAQAQGAAAAAABABAYAAAAAAEAEBgAAAAAAQAQGAAAAAABABAYAAAAAAEAEBgAAAAAAQAQGAAAAAABABAYAAAAAAEAEBgAAAAAAQAQGAAAAAABABAYAAAAAAEAEBgAAAAAAQAQGAAAAAABABAYAAAAAAEAEBgAAAAAAQAQGAAAAAABABAYAAAAAAEAEBgAAAAAAQAQGAAAAAABABAYAAAAAAEAEBgAAAAAAQAQGAAAAAABABAYAAAAAAEAEBgAAAAAAQAQGAAAAAABABAYAAAAAAEAEBgAAAAAAQAQGAAAAAABABAYAAAAAAEAEBgAAAAAAQAQGAAAAAABABAYAAAAAAEAEBgAAAAAAQAQGAAAAAABABAYAAAAAAEAEBgAAAAAAQAQGAAAAAABABAYAAAAAAEAEBgAAAAAAQAQGAAAAAABABAYAAAAAAEAEBgAAAAAAQAQGAAAAAABABAYAAAAAAEAEBgAAAAAAQAQGAAAAAABABAYAAAAAAEAEBgAAAAAAQAQGAAAAAABABAYAAAAAAEAEBgAAAAAAQAQGAAAAAABABAYAAAAAAEAEBgAAAAAAQAQGAAAAAABABAYAAAAAAEAEBgAAAAAAQAQGAAAAAABABAYAAAAAAEAEBgAAAAAAQAQGAAAAAABABAYAAAAAAEAEBgAAAAAAQAQGAAAAAABABAYAAAAAAEAEBgAAAAAAQAQGAAAAAABABAYAAAAAAEAEBgAAAAAAQAQGAAAAAABABAYAAAAAAEAEBgAAAAAAQAQGAAAAAABABAYAAAAAAEAEBgAAAAAAQAQGAAAAAABABAYAAAAAAEAEBgAAAAAAQAQGAAAAAABABAYAAAAAAEAEBgAAAAAAQAQGAAAAAABABAYAAAAAAEAEBgAAAAAAQAQGAAAAAABABAYAAAAAAEAEBgAAAAAAQAQGAAAAAABABAYAAAAAAEAEBgAAAAAAQAQGAAAAAABABAYAAAAAAEAEBgAAAAAAQAQGAAAAAABABAYAAAAAAEAEBgAAAAAAQAQGAAAAAABABAYAAAAAAEAEBgAAAAAAQAQGAAAAAABABAYAAAAAAEAEBgAAAAAAQAQGAAAAAABABAYAAAAAAEAEBgAAAAAAQAQGAAAAAABABAYAAAAAAEAEBgAAAAAAQAQGAAAAAABABAYAAAAAAEAEBgAAAAAAQAQGAAAAAABABAYAAAAAAEAEBgAAAAAAQAQGAAAAAABABAYAAAAAAEAEBgAAAAAAQAQGAAAAAABABAYAAAAAAEAEBgAAAAAAQAQGAAAAAABABAYAAAAAAEAEBgAAAAAAQAQGAAAAAABABAYAAAAAAEAEBgAAAAAAQAQGAAAAAABABAYAAAAAAEAEBgAAAAAAQAQGAAAAAABABAYAAAAAAEAEBgAAAAAAQAQGAAAAAABABAYAAAAAAEAEBgAAAAAAQAQGAAAAAABABAYAAAAAAEAEBgAAAAAAQAQGAAAAAABABAYAAAAAAEAEBgAAAAAAQAQGAAAAAABABAYAAAAAAEAEBgAAAAAAQAQGAAAAAABABAYAAAAAAEAEBgAAAAAAQAQGAAAAAABABAYAAAAAAEAEBgAAAAAAQAQGAAAAAABABAYAAAAAAEAEBgAAAAAAQAQGAAAAAABABAYAAAAAAEAEBgAAAAAAQAQGAAAAAABABAYAAAAAAEAEBgAAAAAAQAQGAAAAAABABAYAAAAAAEAEBgAAAAAAQAQGAAAAAABABAYAAAAAAEAEBgAAAAAAQAQGAAAAAABABAYAAAAAAEAEBgAAAAAAQAQGAAAAAABABAYAAAAAAEAEBgAAAAAAQAQGAAAAAABABAYAAAAAAEAEBgAAAAAAQAQGAAAAAABABAYAAAAAAEAEBgAAAAAAQAQGAAAAAABABAYAAAAAAEAEBgAAAAAAQAQGAAAAAABABAYAAAAAAEAEBgAAAAAAQAQGAAAAAABABAYAAAAAAEAEBgAAAAAAQAQGAAAAAABABAYAAAAAAEAEBgAAAAAAQAQGAAAAAABABAYAAAAAAEAEBgAAAAAAQAQGAAAAAABABAYAAAAAAEAEBgAAAAAAQAQGAAAAAABABAYAAAAAAEAEBgAAAAAAQAQGAAAAAABABAYAAAAAAEAEBgAAAAAAQAQGAAAAAABABAYAAAAAAEAEBgAAAAAAQAQGAAAAAABABAYAAAAAAEAEBgAAAAAAQAQGAAAAAABABAYAAAAAAEAEBgAAAAAAQAQGAAAAAABABAYAAAAAAEAEBgAAAAAAQAQGAAAAAABABAYAAAAAAEAEBgAAAAAAQAQGAAAAAABABAYAAAAAAEAEBgAAAAAAQAQGAAAAAABABAYAAAAAAEAEBgAAAAAAQAQGAAAAAABABAYAAAAAAEAEBgAAAAAAQAQGAAAAAABABAYAAAAAAEAEBgAAAAAAQAQGAAAAAABABAYAAAAAAEAEBgAAAAAAQAQGAAAAAABABAYAAAAAAEAEBgAAAAAAQAQGAAAAAABABAYAAAAAAEAEBgAAAAAAQAQGAAAAAABABAYAAAAAAEAEBgAAAAAAQAQGAAAAAABABAYAAAAAAEAEBgAAAAAAQAQGAAAAAABABAYAAAAAAEAEBgAAAAAAQAQGAAAAAABABAYAAAAAAEAEBgAAAAAAQAQGAAAAAABABAYAAAAAAEAEBgAAAAAAQAQGAAAAAABABAYAAAAAAEAEBgAAAAAAQAQGAAAAAABABAYAAAAAAEAEBgAAAAAAQAQGAAAAAABABAYAAAAAAEAEBgAAAAAAQAQGAAAAAABABAYAAAAAAECSjme7AAAAgF9ma1/Sn3Qk6x+al219c5/tcgAA+CU2d96CRf/t2S4CAIDnuK6l6Vnakf4n91U82ZGu5Ydk4fDu7BuaxVWfdkn+eO3KbFv/o+ye+rvTveLgzB+sqbGzO92/8vwc2L04C7sXpzNPZ9++kYq3FW1vew5ctDjz5i/IwMDMLbNQq21robq/X5111/xhDt1yc+7bOVMFrs4r3/eOnFK6Kz/cVtwXKy66Mv/9rI5843sPTrbqdB97Sk48YVUOHNqZx3bNXB+/7N3X5i2rHsytP+xrcyzWO2XlQP7+zX254KT+/PuX7M3Rhw3m4X/ryLadQgMAAJ4dzjAAAKC1096cy8/Ymas+8OlsH3/yhfntd16aZd++JNfcNIvr7uhMd8fC6b33hDfmsj9Yk9z11/ng9Rsnnn/h6/KudSemu78/Q0nS0ZWu/nvymY9emzsfS4PtnZp58xdk+SErc+CixXlyzxPpWbosm3/0r9Nc2hS02rZWmvb36bnoqqNy72XX5s42SuzsWJjO8X+JtLnMo8/LZW86PSvm7MzWHUPpOfN30vn47bnuw1/K1sE2iizSzliscMqvDOS9J+3Jqb82kHQl625YkpXPH875pz2dr72/L+u3zMu6v1qSbY8KDgAAeGYJDAAAeE7rv+Xj+eAt03vvquNWp++HG9O96qVZlY3ZXPXbrfnyZVfle0mSpTn1Tz6Yiy56de68+hvtlpyepcvygsNXjT+eP39B+nbuyJN7nmh72ZNTv20XnHd67rzm1pbvbN7fXenuOiDz2qptU278s/fNzDKXnJWL33xyBr97VS796taxJ5fmyFOWz3xYkPbGYtk1L9+Vtav7k87k8/d2Zd0/LMllr3oytz0wL1+4oyt/8to9OXXNQDZe/2g+/52ufPh/L8q2XsEBAADPDIEBAAAz4+jz8q43nZ7DupLBXVtzy1evy40bdidZmiMvelsuOG5luucMZsf9X8k1f3VrxSVduvKydX+Wkx75WD725YfHnluTN1xxfub+v/fliwsvyZWn9OWjf/6l7EhXVpz1xrz+zKNyWHdnsq8367/wsdywoegCMafnN498Kpuv/kEWrXtjjj8u2XxXo+J3Zv3G7XnDGQdnRTLtswrK5s2fX/fcgYsWt7nU6dqZHf82lJRLOuK8XPa2nnxrfEb/6pz9n9+entvenc98O8kZlf1d4YjzctnFJ2dFOvOrV12d3931g6rXHHbhFXlL1zfywU/eniRZddEVeWv3d/K+a25OkvSc+/68a/nt+eAneifW97PiZSZJ5i7O8f/xilzwoqXpHNmZ9Z/7SN3nvOKcs3LkU3fkf4yHBfu3977bJq6ftOy8y3NRvp71y87P+Uc8lZs+dm0eOPa8vOHkw7NsfmcGn9yaG6+9KrdsK2/Iq3PxW1+TI5d0Znfvxvx4tGLRtX3zvJPzhre+Liet6Ern4O5sXv/FXPfljWmUVaxd3b8/LEjyF/+8KL0L5+TBj+zIQXNGktOT9ffPy7ovLUk692Ttyv6sfWV/br9nfj7/9a6mnzAAAMyUOc92AQAA/CJYnXPPPzlD37o8l667JO+/4QfZ+pP9X+6uuPA9ufiI3nzmA5fk0vd8KN9Z9Nq85Zzuivf2Z+O2nTns2NOzrPzUcS/NMV1bcucPksw7IF0HLExnkqQzy5YP5lufeF8uXffOXHF7currz8+qFDhtTV6854Fs2L4xdz6UHPWSNU3q78iqQ5cnfY+0HRYc2j2cA/b9LL0/3Vb1/PTPLlia4y+6JC8/eipzfTqyaMXK9BxxYl523mW56MincsvNY2cXzFmYrpoZ/QsP6Ep3+Ymq/q6w9eu57oZ7szsP56aPfyxXXf/1qkBh60/60nXY6qxIkqzOmiMWJyuOyjFJku4cc9TK9PXeVb2+Zst8wUuzZvMn8/5L351r7pmXU89+TXpqSlr5vO70PXhHdbBRo3P+wix76ety/E//Ou+57EO56cHlOWzJ1nzhT9+dS9e9O5/68fKcu/acdCX7z1hYd06WPfjpvGfdJbniM1uSRRULq+qb1Tn30gvz4r4v50N/fEku/fC3k5Pfnnecu7RhLZ/f1JW/2LAoPx2Ym/eu3ZOP/sETOejAkTzwaEe+cveCrDpkKBuvfDRrz+hPSsm6q5YICwAAeEYJDAAAmAFPZ3CwMwetOCo9XcngD2/NfY8lyYk59djOfO+rn87m/iSDvVm/cXsOW3Vy1bv7v35XNh90RE54wf7Hq16yOp0P3FVzCaEk2Z07P/vp3L2tP+lemvy0N7sPXJyir2iPOfbwPP6jW7Mjyea7NqXzRS+tCRaW59R3XpqL33lp3vVnV2fdETvz1RumfzmiC1/cn0+ctSv3vunRDA7sS9/OR6tCg8cfe3R6Cz7whLzspUfntDUvnMKblubY1742r3/1yTl+1fJ0jiQ9yxt/kT0pg7uze9dgBjOUPdsfTl9vzVkd39+UH3cflmNXJFmxJqv6b823Hn9BjjwhSY7L4Ut3ZnPtmSDNlrn1m7n+5oczmP5s/udN2b1keQ6pevPqrOipfnz2f746V151da686vKcfcTEbzof/0Gu//KmDPb3ZzAbc9P1X8vW3UPpPGhpdjy2M+nuSU+SrjNOzpH77sin/mb/WQKD224eG8cFTjg9v7Fka775N7enbzDJI9/I9d/tzWEnvHoi+Cqw+lVDOeR3h5ODk+E9yehjyYYHO7N3TinLDh1JDkjSm+TGJD9JXrBouMnSAABgZrkkEQAAM+Dh3PjXn83CN70ul195Trbf/8185n99IzsGe7K0qyu/esHVWXPexKv7t/yg+u2DN+d7D7wmrzplZW7c1pPjVyUbv3RHwXo60nPKG/PG31mTnid7s3lXZzrTX/C603PiCzuz7LB35cqX7H9fV9dQjj8h2byh/JqnsuOhrdmSZPetn8uPfriz4aVkWjntkIF84qxdSZLP/qgrP9k9N4d2P5XOfT9L70+TgX37pn+GwZPfyHWXb0zHnt4pvKk36//y42P3MEhy9Jtz+R+9LS/f+KG0eQn+xgZvz72PnJOjfr0jXfNXp+PhL+XOp9fkHUeuTrI6q/q35h+ne/rGUDLYOS8HVD25Kdv7kmPmlM+FeCjfuv5j+X7HyrziknOysHJq1N6nK0ZJV1ac/fa85czDM/TYlmwZnJjB39O9cPJnmRy0OF27d+bhikHT/3R/smT/Za2KznpY+5r+/Icz+pO9ySf/8YB87ZsL8t4z92Tt8f1JV3LbA/PyF/+wKKd0D+S9L9mTa16+K+tuWZLPb3KWAQAAzwyBAQAArW3bmb7u5fnVzmT7+Beky9PdtTs7fjb28JHbc8OVt+eG7qPzykvelssu7s97rulP/2B/Nnzh3fnihgbLTpIM5c67t+SC009Oz4sW5ohsyheK7jew4nW5+IKV2fDn785NjwwlL3pzLn9Rwcz509bkxf0bc921E5e4efHvvSe/fdyJ+eKGchCxJ5tv/NrEl+pt+MBJe8b/+8IX9+fQ7uGcdshAjvrb5+eRnduavHNyBh/vnXaYkSS555E8ntVZurztUprYnbs37czZLzwla+YvzgO3bkrfk1uT89Zk1dMrkq1/3/blnmo98JOdOf+Ek7Mq92RzhtLf+3D6szBN5+Sf9va867TBfOq/XJr7+pO88rK87Iz9vxocSXLg4vQk6Wu18v6BDHZ156BU3PNibkeyu7fhJZI+//WuvOLEvVmzcjB/+KqnsnDOSN7xf5Zk5XeGk7nJbQ/OyzWv2ZW1h/cnw/svYSQsAADgmeSSRAAAtHb/XXngyZU58/fXjF2/vSPLzvutHLNvSzbekyQrc+Rpq/f/bvc9+f7mvnQu7EpyW+54qCMnnHlOesoTwbu601V3gfwk3749Gw48KueetTq579aCyxElOWx5Durfme07h5J0pOeFy9Nd8LJjjj08/Q/9IPdtfzh9Yz/r/2VLOo44rvh+B22qvWzMaYcMjJ9p8Kzr7M6qPzgjq/Zty733J3nokTye5Vn1G/vnDnWf8eocU9SJRZ58OkPpyoIlxb/u+/H2DC0/OSf1bMt9G5Lcf08eOPDwvOrwxdl8f9EZI62X2Uzf//2n3N25Jhe87eSK8dVTPL7G9CzrSeee3mzvT5KurFo5cV2jHfduye7nHZczy/eLOPisHPm8Bgv6/sb8aOTw/ObZYylM59F5wykr03f/7U2DkTdf8e/ynz6+JLfdNy9rT+3Pxj9/NIcuHc6phw7k8Q8+krVH9+e2n83LOV/rybpbptEpAADQBmcYAAAwCRvzxc/emsve9PZ85KOD6U9nuoZ6c9Pffmr/F/sHr8xRv/m6vOXcZGikIx0dT+SW629OMpS7r/tkbvmTN+fyD/9W+oeG0jFnMBtu+NN88fu1lxK6I3fef37WHfdUbvrwpuIyvv9PWf+KS3LxlVenf2Qwvf+6JduzuPo1nafnxBcO5d7Pbax+/rZN+fHrX7H/skRPzkyvlH3u/oX5wEv3VD23/qfzZ3YlU3JYzr/m2pyfJBnM7t5785mPfCr3JcngzfnOva/IWy+8Oke+IXl661fy3a2rc0Thcnqz88nunHTua/OtK7+Svu23Z0Pv6Tn3v348r9q3KZ9/37W5u/LlGzZl8++fl2Me+drY83fkvp9cmLe+qDc3fLRBqQXLfHyymzl4a66/Mrno0vNy+UcvzGD/YDq7OtP3wNdy3UPFb+m79fbcd9I5ufzqUzI08lS2/usjE2cT3PWpfOr7l+ddf/SXOal/MEP7tuTOn+2uuXdCxbo/vTyXvenyfOTM/gzN6cjg9ptzzRcajN0K6++Zl/X39OSUFw3kf164K9dcsCvZm/zkkblZ99Ulue3heS2XAQAAs6F0wOKDR5/tIgAA+HnRka7lB2dhnqi/6W2SdC9PT/dQdm8vuB9As99No4bOJx7O7qLbFzzDTjtkIF9/bV8++6OunHbIQJLkj25eku/+9Ln9pW/nQSvTnZ3pe7xFJ3YtTc/igYrPezb6fwaW2b08Pd3J0zt6099ygHWle8XiDDZ6bd02NzNW+9OPZPfuoanXnWTtiWOXIPoXlx8CAODZJTAAAIA2lEOC53pAAAAA0IrAAAAAAAAAcNNjAAAAAABAYAAAAAAAAERgAAAAAAAARGAAAAAAAABEYAAAAAAAAERgAAAAAAAARGAAAAAAAABEYAAAAAAAAERgAAAAAAAARGAAAAAAAABEYAAAAAAAAERgAAAAAAAARGAAAAAAAABEYAAAAAAAAERgAAAAAAAARGAAAAAAAAAk+f9P0jcBfQ3IkQAAAABJRU5ErkJggg==;imageBackground=none;" vertex="1" parent="1">
          <mxGeometry x="111" y="70" width="948" height="666.3" as="geometry" />
        </mxCell>
        <mxCell id="0Q9RwSlWG3deikkum8Ub-3" value="Поле ввода текста" style="text;html=1;strokeColor=none;fillColor=none;align=center;verticalAlign=middle;whiteSpace=wrap;rounded=0;fontColor=#ff0000;fontStyle=1" vertex="1" parent="1">
          <mxGeometry x="250" y="260" width="150" height="30" as="geometry" />
        </mxCell>
        <mxCell id="0Q9RwSlWG3deikkum8Ub-4" value="Поле с результатом обработки" style="text;html=1;strokeColor=none;fillColor=none;align=center;verticalAlign=middle;whiteSpace=wrap;rounded=0;fontColor=#ff0000;fontStyle=1" vertex="1" parent="1">
          <mxGeometry x="740" y="260" width="150" height="30" as="geometry" />
        </mxCell>
        <mxCell id="0Q9RwSlWG3deikkum8Ub-5" value="Выбор параметров обработки" style="text;html=1;strokeColor=none;fillColor=none;align=center;verticalAlign=middle;whiteSpace=wrap;rounded=0;fontColor=#ff0000;fontStyle=1" vertex="1" parent="1">
          <mxGeometry x="310" y="430" width="150" height="30" as="geometry" />
        </mxCell>
        <mxCell id="0Q9RwSlWG3deikkum8Ub-6" value="Кнопка очистки формы ввода" style="text;html=1;strokeColor=none;fillColor=none;align=center;verticalAlign=middle;whiteSpace=wrap;rounded=0;fontColor=#ff0000;fontStyle=1" vertex="1" parent="1">
          <mxGeometry x="160" y="550" width="150" height="30" as="geometry" />
        </mxCell>
        <mxCell id="0Q9RwSlWG3deikkum8Ub-7" value="Кнопка запуска обработки" style="text;html=1;strokeColor=none;fillColor=none;align=center;verticalAlign=middle;whiteSpace=wrap;rounded=0;fontColor=#ff0000;fontStyle=1" vertex="1" parent="1">
          <mxGeometry x="390" y="550" width="150" height="30" as="geometry" />
        </mxCell>
      </root>
    </mxGraphModel>
  </diagram>
</mxfile>
